<svg version="1.2" xmlns="http://www.w3.org/2000/svg" viewBox="0 0 1040 850" width="1040" height="850"><style>.a{fill:#49d6f9}</style><path class="a" d="m786.7 380.4l252.6 381.3v-719.2h-112.3c26.6 35.5 42.5 79.7 42.5 127.5 0 107.3-79.5 196-182.8 210.4z"/><path class="a" d="m537 680c0 23.5-19.1 42.5-42.5 42.5h-174.9v85h648.1l-281.6-425h-314.5v85h242.9c23.4 0 42.5 19 42.5 42.5 0 23.5-19.1 42.5-42.5 42.5h-466.7v85h346.7c23.4 0 42.5 19 42.5 42.5z"/><path class="a" d="m757 42.5h-328.9v85h120.6 88 129.7c23.5 0 42.5 19 42.5 42.5 0 23.5-19 42.5-42.5 42.5h-129.7-88-351.4v85h389.6 170c70.5 0 127.5-57.1 127.5-127.5 0-70.4-57-127.5-127.5-127.5z"/><path fill-rule="evenodd" class="a" d="m353.6 765c-0.1 46.9-38.1 85-85.1 85-46.9 0-85-38.1-85-85 0-46.9 38.1-85 85-85 47 0 85 38.1 85 85zm-34 0c0-28.2-22.8-51-51-51-28.1 0-51 22.8-51 51 0 28.2 22.9 51 51 51 28.2 0 51-22.8 51-51z"/><path fill-rule="evenodd" class="a" d="m170 595c0 46.9-38.1 85-85 85-46.9 0-85-38.1-85-85 0-46.9 38.1-85 85-85 46.9 0 85 38.1 85 85zm-34 0c0-28.2-22.8-51-51-51-28.2 0-51 22.8-51 51 0 28.2 22.8 51 51 51 28.2 0 51-22.8 51-51z"/><path fill-rule="evenodd" class="a" d="m391 425c0 46.9-38.1 85-85 85-46.9 0-85-38.1-85-85 0-46.9 38.1-85 85-85 46.9 0 85 38.1 85 85zm-34 0c0-28.2-22.8-51-51-51-28.2 0-51 22.8-51 51 0 28.2 22.8 51 51 51 28.2 0 51-22.8 51-51z"/><path fill-rule="evenodd" class="a" d="m214.3 255c0 46.9-38 85-85 85-46.9 0-85-38.1-85-85 0-46.9 38.1-85 85-85 47 0 85 38.1 85 85zm-34 0c0-28.2-22.8-51-51-51-28.1 0-51 22.8-51 51 0 28.2 22.9 51 51 51 28.2 0 51-22.8 51-51z"/><path fill-rule="evenodd" class="a" d="m456.6 85c0 46.9-38.1 85-85 85-46.9 0-85-38.1-85-85 0-46.9 38.1-85 85-85 46.9 0 85 38.1 85 85zm-34 0c0-28.2-22.8-51-51-51-28.2 0-51 22.8-51 51 0 28.2 22.8 51 51 51 28.2 0 51-22.8 51-51z"/></svg>