<?xml version="1.0" encoding="UTF-8"?>
<svg id="Layer_1" xmlns="http://www.w3.org/2000/svg" viewBox="0 0 212.56 240.87">
  <defs>
    <style>
      .cls-1 {
        fill: #ab6a40;
      }

      .cls-2 {
        fill: #9c6332;
      }

      .cls-3 {
        fill: #3f2d1b;
      }

      .cls-4 {
        fill: #c48559;
      }
    </style>
  </defs>
  <g id="Layer_1-2" data-name="Layer_1">
    <g id="Layer_1-2">
      <g>
        <path class="cls-2" d="M1,138.91c-1.7-21.5,1.1-42.4,11.9-61.3,3.4-5.8,2-8.5-1.7-13.2C-4.3,44.31-3.6,24.71,12.6,9.41,26.4-3.69,48.5-2.29,65.9,14.31c5.4,5.1,9.1,5.2,14.5,2.1,16.8-9.6,34.3-9.9,52.2-3.4,3.6,1.3,5.9,3.6,10.2-2.1,10.5-13.8,27.2-12.3,41-7.5,23.9,8.3,26.5,30.1,15,46.9-6.2,9-4.5,14-.5,21.7,22.9,43.3,16.5,85.5-7,125.9-17.3,29.7-76.6,49.6-114.2,40.9-29.9-7-59.2-13.9-69.6-48.7-5-16.8-8.1-33.7-6.5-51.2h0Z"/>
        <path class="cls-4" d="M153.4,136.91c-3.7,27-10.8,52.9-31,73.2-19,19.1-32.3,18.9-51.6,0-26.9-26.2-28.8-45.2-12.3-78.2,13.4-26.7,47.6-32.2,72.8-27.8,18,3.2,25.7,14,22.2,32.7h0l-.1.1Z"/>
        <path class="cls-1" d="M56.3,50.01c-8.5-2.6-7.2-16.1-17-11.9-7.3,3.1,1.5,10.5-3.3,17.8-7.6-8-10.2-16.1-6-25.4,3.3-7.2,11.3-7.3,17-4.9,9.8,4.2,14.4,12.1,9.3,24.3v.1Z"/>
        <path class="cls-1" d="M167.9,51.81c-4.3-10.7,13.3-13.7,4.9-21.3-6.1-5.5-13,.7-19.5,11.8,1.4-16,7.2-20.7,17.3-21.2,5.5-.3,11.8.8,12.5,6.5,1.5,11.2-4.1,19.1-15.2,24.2Z"/>
        <path class="cls-3" d="M145.5,87.81c5.9,0,7.7,3.3,7.4,8.6-.3,4.8-3.3,6.4-7.6,6.4-5.9,0-7.6-3.4-7.3-8.6.3-4.8,3.2-6.5,7.6-6.4h-.1Z"/>
        <path class="cls-3" d="M74.7,99.51c0,4.6-2.2,7-6.9,7.1-5.5.2-8.2-2.2-8.1-7.9.1-6,3.8-7.5,8.9-7.1,4.8.4,6.3,3.5,6.1,7.8h0v.1Z"/>
        <path class="cls-1" d="M140.8,79.21c-1.9,1.6-3,3.3-4.3,3.4-1.5.2-4.2-.7-4.6-1.7-1.1-2.9,1-4.5,3.7-4.5,1.5,0,2.9,1.5,5.1,2.8h.1Z"/>
        <path class="cls-1" d="M76.7,85.11c-1,.4-2.5,1.6-4,1.6-2.9,0-4.5-2-3-4.7.6-1.1,3.1-1.6,4.7-1.4,1.8.2,3.4,1.4,2.3,4.5h0Z"/>
        <path class="cls-3" d="M87.2,214.21c4.1-13.6-3.2-21.6-15.6-26.8-8.4-3.5-14.7-8.9-12-19.1,2.8-10.4,11.7-10.3,20.1-10.4,10.4-.1,20.8-.6,31.1.2,6.3.5,15.5-4.5,18.3,5.2,2.7,9.3-.6,18.8-8.5,24.1-8.1,5.5-14,10.2-11.3,21.1.7,2.9-3.7,9-6.2,4.4-8.7-15.9-8.2,4.7-15.9,1.4h0v-.1Z"/>
      </g>
    </g>
  </g>
</svg>