<?xml version="1.0" encoding="UTF-8"?>
<svg id="Layer_1" xmlns="http://www.w3.org/2000/svg" viewBox="0 0 377.82 418.24">
  <defs>
    <style>
      .cls-1 {
        fill: #c48558;
      }

      .cls-2 {
        fill: #9c6332;
      }

      .cls-3 {
        fill: #3f2d1b;
      }

      .cls-4 {
        fill: #402d1b;
      }

      .cls-5 {
        fill: #c48559;
      }
    </style>
  </defs>
  <g id="Layer_1-2" data-name="Layer_1">
    <g id="Layer_1-2">
      <g>
        <path class="cls-2" d="M144.82,418.24c-50-2.2-83.8-39.5-111.5-84.1C-2.78,275.94-10.58,213.94,15.02,149.64c7.1-17.7,8-33.2,1-50.6-9.2-22.6-2.8-46.4.5-68.6C20.22,5.64,53.22-3.76,80.32,13.34c14.1,8.9,23.2,7.8,37.1,3.3C169.22-.16,222.12-5.46,275.42,9.64c8.1,2.3,12.9,1.4,20.7-2.5,19.1-9.5,39.2-11.4,56.6,6.1,17.7,17.8,27,36.7,12.7,61.1-9.3,15.9-7.8,31.5-1.6,49.2,12,34,19.3,68.3,9.3,105.8-29.2,110-95.8,181.4-228.3,188.9h0Z"/>
        <path class="cls-5" d="M137.32,162.04c43.9-59.4,96.5-52.1,133.3,13.3,35.5,63,19.6,119.8-11.1,175.8-13.6,24.8-36.2,40.7-68.2,39.1-109.3-5.4-142.3-64.1-97.3-168.2,9.7-22.4,22.5-45.1,43.7-60.5,10.7,26.7,25.3,50.4,43.9,73,23.1,28.2,11,62.6,1,92.7-7.2,21.7,6.7,5.9,10,8,5.1,3.2,8.3,7.7,11.9,12.6-23.8-34.3-8.7-73.1-12-109.7-1-11.4,14.9-16.2,23.8-23.2,14.4-11.3,26.5-25.1,17.6-44.1-8.7-18.5-26.8-13.5-42.9-11.9-17.8,1.7-35.2,12.7-53.7,3.1h0Z"/>
        <path class="cls-4" d="M242.32,100.24c22.8,4.2,42.4,14.9,55-8.9,2.6-4.9,7.4-5.2,11.5-2.6,5.6,3.6,4.8,8.5,2.8,14.6-4.6,13.9-16.6,18.9-28.1,22.1-18.5,5.1-29.1-7.5-41.2-25.3v.1Z"/>
        <path class="cls-4" d="M36.22,135.34c22.6-7.9,47.8,5.4,65.8-13.9,1.2-1.3,7.7,2.2,11.7,3.4-1.5,4-1.8,9.5-4.7,11.9-22.7,19.3-46.3,23.3-72.8-1.4Z"/>
        <path class="cls-1" d="M304.22,34.74c18.1-7.3,31.6-7.9,40.5,8.9,4.2,8,10.6,17.8-1.2,23.4-12.6,6-11.5-6.3-13-13.2-2.7-13-18.1-7.1-26.3-19h0v-.1Z"/>
        <path class="cls-5" d="M79.92,64.74c-26.4-12.1-41.8-6.9-40.4,28.7-10.5-23.7-5.7-36.6,8-45.4,14.3-9.3,23.2-.5,32.5,16.7h-.1Z"/>
        <path class="cls-3" d="M137.32,162.04c21.1-4.8,42-10.8,63.4-14,17.1-2.6,36.3-3.2,44.7,16.6,8,18.9,2.5,40.2-13.4,49.5-60.9,35.8-30.4,84.3-21,129.8,2,9.6,11,18.3-2.4,27.2-5.8-10.8-11.6-21.5-17.7-32.7-8.8,5-3.5,13-6.7,18.3-3.6,5.7-6.8,13.9-15,10.1-5.5-2.5-4.6-9.8-2.6-15.4,3.5-9.6,8.3-18.9,10.6-28.8,9.6-40.8,17.9-80.6-26-110.2-16-10.8-16.1-31.9-13.6-50.8l-.4.4h.1Z"/>
      </g>
    </g>
  </g>
</svg>