<?xml version="1.0" encoding="UTF-8"?>
<svg id="Layer_1" data-name="Layer 1" xmlns="http://www.w3.org/2000/svg"
  xmlns:xlink="http://www.w3.org/1999/xlink" version="1.1" viewBox="0 0 869.5 265">
  <defs>
    <style>
      .cls-1 {
      clip-path: url(#clippath);
      }

      .cls-2 {
      fill: none;
      }

      .cls-2, .cls-3, .cls-4, .cls-5, .cls-6 {
      stroke-width: 0px;
      }

      .cls-3 {
      fill: #15130d;
      }

      .cls-7 {
      clip-path: url(#clippath-1);
      }

      .cls-8 {
      clip-path: url(#clippath-4);
      }

      .cls-9 {
      clip-path: url(#clippath-3);
      }

      .cls-10 {
      clip-path: url(#clippath-2);
      }

      .cls-11 {
      clip-path: url(#clippath-7);
      }

      .cls-12 {
      clip-path: url(#clippath-8);
      }

      .cls-13 {
      clip-path: url(#clippath-6);
      }

      .cls-14 {
      clip-path: url(#clippath-5);
      }

      .cls-15 {
      clip-path: url(#clippath-9);
      }

      .cls-4, .cls-5 {
      fill: #000;
      }

      .cls-16 {
      clip-path: url(#clippath-60);
      }

      .cls-17 {
      clip-path: url(#clippath-69);
      }

      .cls-18 {
      clip-path: url(#clippath-20);
      }

      .cls-19 {
      clip-path: url(#clippath-21);
      }

      .cls-20 {
      clip-path: url(#clippath-24);
      }

      .cls-21 {
      clip-path: url(#clippath-23);
      }

      .cls-22 {
      clip-path: url(#clippath-22);
      }

      .cls-23 {
      clip-path: url(#clippath-25);
      }

      .cls-24 {
      clip-path: url(#clippath-44);
      }

      .cls-25 {
      clip-path: url(#clippath-45);
      }

      .cls-26 {
      clip-path: url(#clippath-40);
      }

      .cls-27 {
      clip-path: url(#clippath-42);
      }

      .cls-28 {
      clip-path: url(#clippath-41);
      }

      .cls-29 {
      clip-path: url(#clippath-47);
      }

      .cls-30 {
      clip-path: url(#clippath-43);
      }

      .cls-31 {
      clip-path: url(#clippath-46);
      }

      .cls-32 {
      clip-path: url(#clippath-48);
      }

      .cls-33 {
      clip-path: url(#clippath-49);
      }

      .cls-34 {
      clip-path: url(#clippath-84);
      }

      .cls-35 {
      clip-path: url(#clippath-88);
      }

      .cls-36 {
      clip-path: url(#clippath-86);
      }

      .cls-37 {
      clip-path: url(#clippath-81);
      }

      .cls-38 {
      clip-path: url(#clippath-83);
      }

      .cls-39 {
      clip-path: url(#clippath-85);
      }

      .cls-40 {
      clip-path: url(#clippath-80);
      }

      .cls-41 {
      clip-path: url(#clippath-87);
      }

      .cls-42 {
      clip-path: url(#clippath-82);
      }

      .cls-43 {
      clip-path: url(#clippath-98);
      }

      .cls-44 {
      clip-path: url(#clippath-89);
      }

      .cls-45 {
      clip-path: url(#clippath-27);
      }

      .cls-46 {
      clip-path: url(#clippath-28);
      }

      .cls-47 {
      clip-path: url(#clippath-26);
      }

      .cls-48 {
      clip-path: url(#clippath-29);
      }

      .cls-49 {
      clip-path: url(#clippath-34);
      }

      .cls-50 {
      clip-path: url(#clippath-35);
      }

      .cls-51 {
      clip-path: url(#clippath-36);
      }

      .cls-52 {
      clip-path: url(#clippath-37);
      }

      .cls-53 {
      clip-path: url(#clippath-39);
      }

      .cls-54 {
      clip-path: url(#clippath-33);
      }

      .cls-55 {
      clip-path: url(#clippath-32);
      }

      .cls-56 {
      clip-path: url(#clippath-30);
      }

      .cls-57 {
      clip-path: url(#clippath-38);
      }

      .cls-58 {
      clip-path: url(#clippath-31);
      }

      .cls-59 {
      clip-path: url(#clippath-95);
      }

      .cls-60 {
      clip-path: url(#clippath-99);
      }

      .cls-61 {
      clip-path: url(#clippath-93);
      }

      .cls-62 {
      clip-path: url(#clippath-94);
      }

      .cls-63 {
      clip-path: url(#clippath-91);
      }

      .cls-64 {
      clip-path: url(#clippath-96);
      }

      .cls-65 {
      clip-path: url(#clippath-90);
      }

      .cls-66 {
      clip-path: url(#clippath-92);
      }

      .cls-67 {
      clip-path: url(#clippath-97);
      }

      .cls-68 {
      clip-path: url(#clippath-53);
      }

      .cls-69 {
      clip-path: url(#clippath-54);
      }

      .cls-70 {
      clip-path: url(#clippath-50);
      }

      .cls-71 {
      clip-path: url(#clippath-51);
      }

      .cls-72 {
      clip-path: url(#clippath-52);
      }

      .cls-73 {
      clip-path: url(#clippath-55);
      }

      .cls-74 {
      clip-path: url(#clippath-56);
      }

      .cls-75 {
      clip-path: url(#clippath-57);
      }

      .cls-76 {
      clip-path: url(#clippath-58);
      }

      .cls-77 {
      clip-path: url(#clippath-79);
      }

      .cls-78 {
      clip-path: url(#clippath-61);
      }

      .cls-79 {
      clip-path: url(#clippath-64);
      }

      .cls-80 {
      clip-path: url(#clippath-62);
      }

      .cls-81 {
      clip-path: url(#clippath-68);
      }

      .cls-82 {
      clip-path: url(#clippath-67);
      }

      .cls-83 {
      clip-path: url(#clippath-73);
      }

      .cls-84 {
      clip-path: url(#clippath-59);
      }

      .cls-85 {
      clip-path: url(#clippath-65);
      }

      .cls-86 {
      clip-path: url(#clippath-63);
      }

      .cls-87 {
      clip-path: url(#clippath-66);
      }

      .cls-88 {
      clip-path: url(#clippath-70);
      }

      .cls-89 {
      clip-path: url(#clippath-75);
      }

      .cls-90 {
      clip-path: url(#clippath-72);
      }

      .cls-91 {
      clip-path: url(#clippath-78);
      }

      .cls-92 {
      clip-path: url(#clippath-71);
      }

      .cls-93 {
      clip-path: url(#clippath-77);
      }

      .cls-94 {
      clip-path: url(#clippath-74);
      }

      .cls-95 {
      clip-path: url(#clippath-76);
      }

      .cls-96 {
      clip-path: url(#clippath-14);
      }

      .cls-97 {
      clip-path: url(#clippath-13);
      }

      .cls-98 {
      clip-path: url(#clippath-12);
      }

      .cls-99 {
      clip-path: url(#clippath-10);
      }

      .cls-100 {
      clip-path: url(#clippath-15);
      }

      .cls-101 {
      clip-path: url(#clippath-17);
      }

      .cls-102 {
      clip-path: url(#clippath-16);
      }

      .cls-103 {
      clip-path: url(#clippath-19);
      }

      .cls-104 {
      clip-path: url(#clippath-11);
      }

      .cls-105 {
      clip-path: url(#clippath-18);
      }

      .cls-5 {
      fill-opacity: .4;
      }

      .cls-6 {
      fill: #fe6c30;
      }

      .cls-106 {
      clip-path: url(#clippath-144);
      }

      .cls-107 {
      clip-path: url(#clippath-153);
      }

      .cls-108 {
      clip-path: url(#clippath-157);
      }

      .cls-109 {
      clip-path: url(#clippath-154);
      }

      .cls-110 {
      clip-path: url(#clippath-158);
      }

      .cls-111 {
      clip-path: url(#clippath-146);
      }

      .cls-112 {
      clip-path: url(#clippath-142);
      }

      .cls-113 {
      clip-path: url(#clippath-148);
      }

      .cls-114 {
      clip-path: url(#clippath-141);
      }

      .cls-115 {
      clip-path: url(#clippath-145);
      }

      .cls-116 {
      clip-path: url(#clippath-143);
      }

      .cls-117 {
      clip-path: url(#clippath-147);
      }

      .cls-118 {
      clip-path: url(#clippath-149);
      }

      .cls-119 {
      clip-path: url(#clippath-140);
      }

      .cls-120 {
      clip-path: url(#clippath-151);
      }

      .cls-121 {
      clip-path: url(#clippath-152);
      }

      .cls-122 {
      clip-path: url(#clippath-156);
      }

      .cls-123 {
      clip-path: url(#clippath-155);
      }

      .cls-124 {
      clip-path: url(#clippath-159);
      }

      .cls-125 {
      clip-path: url(#clippath-150);
      }

      .cls-126 {
      clip-path: url(#clippath-113);
      }

      .cls-127 {
      clip-path: url(#clippath-112);
      }

      .cls-128 {
      clip-path: url(#clippath-111);
      }

      .cls-129 {
      clip-path: url(#clippath-110);
      }

      .cls-130 {
      clip-path: url(#clippath-115);
      }

      .cls-131 {
      clip-path: url(#clippath-114);
      }

      .cls-132 {
      clip-path: url(#clippath-116);
      }

      .cls-133 {
      clip-path: url(#clippath-117);
      }

      .cls-134 {
      clip-path: url(#clippath-118);
      }

      .cls-135 {
      clip-path: url(#clippath-119);
      }

      .cls-136 {
      clip-path: url(#clippath-105);
      }

      .cls-137 {
      clip-path: url(#clippath-100);
      }

      .cls-138 {
      clip-path: url(#clippath-102);
      }

      .cls-139 {
      clip-path: url(#clippath-103);
      }

      .cls-140 {
      clip-path: url(#clippath-107);
      }

      .cls-141 {
      clip-path: url(#clippath-109);
      }

      .cls-142 {
      clip-path: url(#clippath-104);
      }

      .cls-143 {
      clip-path: url(#clippath-101);
      }

      .cls-144 {
      clip-path: url(#clippath-108);
      }

      .cls-145 {
      clip-path: url(#clippath-106);
      }

      .cls-146 {
      clip-path: url(#clippath-136);
      }

      .cls-147 {
      clip-path: url(#clippath-138);
      }

      .cls-148 {
      clip-path: url(#clippath-135);
      }

      .cls-149 {
      clip-path: url(#clippath-132);
      }

      .cls-150 {
      clip-path: url(#clippath-137);
      }

      .cls-151 {
      clip-path: url(#clippath-130);
      }

      .cls-152 {
      clip-path: url(#clippath-133);
      }

      .cls-153 {
      clip-path: url(#clippath-134);
      }

      .cls-154 {
      clip-path: url(#clippath-139);
      }

      .cls-155 {
      clip-path: url(#clippath-131);
      }

      .cls-156 {
      clip-path: url(#clippath-129);
      }

      .cls-157 {
      clip-path: url(#clippath-122);
      }

      .cls-158 {
      clip-path: url(#clippath-126);
      }

      .cls-159 {
      clip-path: url(#clippath-125);
      }

      .cls-160 {
      clip-path: url(#clippath-120);
      }

      .cls-161 {
      clip-path: url(#clippath-121);
      }

      .cls-162 {
      clip-path: url(#clippath-123);
      }

      .cls-163 {
      clip-path: url(#clippath-124);
      }

      .cls-164 {
      clip-path: url(#clippath-127);
      }

      .cls-165 {
      clip-path: url(#clippath-128);
      }
    </style>
    <clipPath id="clippath">
      <rect class="cls-2" x="98.5" y="121.3" width="37.3" height="25.3" />
    </clipPath>
    <clipPath id="clippath-1">
      <rect class="cls-2" x="14.1" y="11.1" width="179.8" height="179.8"
        transform="translate(-12.5 14.7) rotate(-7.6)" />
    </clipPath>
    <clipPath id="clippath-2">
      <rect class="cls-2" x="-1022.7" y="-147.8" width="1947.5" height="1947.5"
        transform="translate(-109.9 .8) rotate(-7.6)" />
    </clipPath>
    <clipPath id="clippath-3">
      <rect class="cls-2" x="-1022.7" y="-147.8" width="1947.6" height="1947.6"
        transform="translate(-109.9 .8) rotate(-7.6)" />
    </clipPath>
    <clipPath id="clippath-4">
      <rect class="cls-2" x="-60.9" y="-62.5" width="378.7" height="378.7"
        transform="translate(-48.1 89.2) rotate(-32.6)" />
    </clipPath>
    <clipPath id="clippath-5">
      <rect class="cls-2" x="81.2" y="84" width="46.7" height="48" />
    </clipPath>
    <clipPath id="clippath-6">
      <rect class="cls-2" x="14.1" y="11.1" width="179.8" height="179.8"
        transform="translate(-12.5 14.7) rotate(-7.6)" />
    </clipPath>
    <clipPath id="clippath-7">
      <rect class="cls-2" x="-1022.7" y="-147.8" width="1947.5" height="1947.5"
        transform="translate(-109.9 .8) rotate(-7.6)" />
    </clipPath>
    <clipPath id="clippath-8">
      <rect class="cls-2" x="-1022.7" y="-147.8" width="1947.6" height="1947.6"
        transform="translate(-109.9 .8) rotate(-7.6)" />
    </clipPath>
    <clipPath id="clippath-9">
      <rect class="cls-2" x="-60.9" y="-62.5" width="378.7" height="378.7"
        transform="translate(-48.1 89.2) rotate(-32.6)" />
    </clipPath>
    <clipPath id="clippath-10">
      <rect class="cls-2" x="79.8" y="82.7" width="49.3" height="52" />
    </clipPath>
    <clipPath id="clippath-11">
      <rect class="cls-2" x="14.1" y="11.1" width="179.8" height="179.8"
        transform="translate(-12.5 14.7) rotate(-7.6)" />
    </clipPath>
    <clipPath id="clippath-12">
      <rect class="cls-2" x="-1022.7" y="-147.8" width="1947.5" height="1947.5"
        transform="translate(-109.9 .8) rotate(-7.6)" />
    </clipPath>
    <clipPath id="clippath-13">
      <rect class="cls-2" x="-1022.7" y="-147.8" width="1947.6" height="1947.6"
        transform="translate(-109.9 .8) rotate(-7.6)" />
    </clipPath>
    <clipPath id="clippath-14">
      <rect class="cls-2" x="-60.9" y="-62.5" width="378.7" height="378.7"
        transform="translate(-48.1 89.2) rotate(-32.6)" />
    </clipPath>
    <clipPath id="clippath-15">
      <rect class="cls-2" x="97.2" y="96" width="29.3" height="32" />
    </clipPath>
    <clipPath id="clippath-16">
      <rect class="cls-2" x="14.1" y="11.1" width="179.8" height="179.8"
        transform="translate(-12.5 14.7) rotate(-7.6)" />
    </clipPath>
    <clipPath id="clippath-17">
      <rect class="cls-2" x="-1022.7" y="-147.8" width="1947.5" height="1947.5"
        transform="translate(-109.9 .8) rotate(-7.6)" />
    </clipPath>
    <clipPath id="clippath-18">
      <rect class="cls-2" x="-1022.7" y="-147.8" width="1947.6" height="1947.6"
        transform="translate(-109.9 .8) rotate(-7.6)" />
    </clipPath>
    <clipPath id="clippath-19">
      <rect class="cls-2" x="-60.9" y="-62.5" width="378.7" height="378.7"
        transform="translate(-48.1 89.2) rotate(-32.6)" />
    </clipPath>
    <clipPath id="clippath-20">
      <rect class="cls-2" x="95.8" y="96" width="30.7" height="32" />
    </clipPath>
    <clipPath id="clippath-21">
      <rect class="cls-2" x="14.1" y="11.1" width="179.8" height="179.8"
        transform="translate(-12.5 14.7) rotate(-7.6)" />
    </clipPath>
    <clipPath id="clippath-22">
      <rect class="cls-2" x="-1022.7" y="-147.8" width="1947.5" height="1947.5"
        transform="translate(-109.9 .8) rotate(-7.6)" />
    </clipPath>
    <clipPath id="clippath-23">
      <rect class="cls-2" x="-1022.7" y="-147.8" width="1947.6" height="1947.6"
        transform="translate(-109.9 .8) rotate(-7.6)" />
    </clipPath>
    <clipPath id="clippath-24">
      <rect class="cls-2" x="-60.9" y="-62.5" width="378.7" height="378.7"
        transform="translate(-48.1 89.2) rotate(-32.6)" />
    </clipPath>
    <clipPath id="clippath-25">
      <rect class="cls-2" x="81.2" y="112" width="38.7" height="6.7" />
    </clipPath>
    <clipPath id="clippath-26">
      <rect class="cls-2" x="14.1" y="11.1" width="179.8" height="179.8"
        transform="translate(-12.5 14.7) rotate(-7.6)" />
    </clipPath>
    <clipPath id="clippath-27">
      <rect class="cls-2" x="-1022.7" y="-147.8" width="1947.5" height="1947.5"
        transform="translate(-109.9 .8) rotate(-7.6)" />
    </clipPath>
    <clipPath id="clippath-28">
      <rect class="cls-2" x="-1022.7" y="-147.8" width="1947.6" height="1947.6"
        transform="translate(-109.9 .8) rotate(-7.6)" />
    </clipPath>
    <clipPath id="clippath-29">
      <rect class="cls-2" x="-60.9" y="-62.5" width="378.7" height="378.7"
        transform="translate(-48.1 89.2) rotate(-32.6)" />
    </clipPath>
    <clipPath id="clippath-30">
      <rect class="cls-2" x="81.2" y="110.7" width="38.7" height="8" />
    </clipPath>
    <clipPath id="clippath-31">
      <rect class="cls-2" x="14.1" y="11.1" width="179.8" height="179.8"
        transform="translate(-12.5 14.7) rotate(-7.6)" />
    </clipPath>
    <clipPath id="clippath-32">
      <rect class="cls-2" x="-1022.7" y="-147.8" width="1947.5" height="1947.5"
        transform="translate(-109.9 .8) rotate(-7.6)" />
    </clipPath>
    <clipPath id="clippath-33">
      <rect class="cls-2" x="-1022.7" y="-147.8" width="1947.6" height="1947.6"
        transform="translate(-109.9 .8) rotate(-7.6)" />
    </clipPath>
    <clipPath id="clippath-34">
      <rect class="cls-2" x="-60.9" y="-62.5" width="378.7" height="378.7"
        transform="translate(-48.1 89.2) rotate(-32.6)" />
    </clipPath>
    <clipPath id="clippath-35">
      <rect class="cls-2" x="87.8" y="90.7" width="37.3" height="17.3" />
    </clipPath>
    <clipPath id="clippath-36">
      <rect class="cls-2" x="14.1" y="11.1" width="179.8" height="179.8"
        transform="translate(-12.5 14.7) rotate(-7.6)" />
    </clipPath>
    <clipPath id="clippath-37">
      <rect class="cls-2" x="-1022.7" y="-147.8" width="1947.5" height="1947.5"
        transform="translate(-109.9 .8) rotate(-7.6)" />
    </clipPath>
    <clipPath id="clippath-38">
      <rect class="cls-2" x="-1022.7" y="-147.8" width="1947.6" height="1947.6"
        transform="translate(-109.9 .8) rotate(-7.6)" />
    </clipPath>
    <clipPath id="clippath-39">
      <rect class="cls-2" x="-60.9" y="-62.5" width="378.7" height="378.7"
        transform="translate(-48.1 89.2) rotate(-32.6)" />
    </clipPath>
    <clipPath id="clippath-40">
      <rect class="cls-2" x="74.5" y="117.3" width="49.3" height="30.7" />
    </clipPath>
    <clipPath id="clippath-41">
      <rect class="cls-2" x="14.1" y="11.1" width="179.8" height="179.8"
        transform="translate(-12.5 14.7) rotate(-7.6)" />
    </clipPath>
    <clipPath id="clippath-42">
      <rect class="cls-2" x="-1022.7" y="-147.8" width="1947.5" height="1947.5"
        transform="translate(-109.9 .8) rotate(-7.6)" />
    </clipPath>
    <clipPath id="clippath-43">
      <rect class="cls-2" x="-1022.7" y="-147.8" width="1947.6" height="1947.6"
        transform="translate(-109.9 .8) rotate(-7.6)" />
    </clipPath>
    <clipPath id="clippath-44">
      <rect class="cls-2" x="-60.9" y="-62.5" width="378.7" height="378.7"
        transform="translate(-48.1 89.2) rotate(-32.6)" />
    </clipPath>
    <clipPath id="clippath-45">
      <rect class="cls-2" x="71.8" y="116" width="54.7" height="33.3" />
    </clipPath>
    <clipPath id="clippath-46">
      <rect class="cls-2" x="14.1" y="11.1" width="179.8" height="179.8"
        transform="translate(-12.5 14.7) rotate(-7.6)" />
    </clipPath>
    <clipPath id="clippath-47">
      <rect class="cls-2" x="-1022.7" y="-147.8" width="1947.5" height="1947.5"
        transform="translate(-109.9 .8) rotate(-7.6)" />
    </clipPath>
    <clipPath id="clippath-48">
      <rect class="cls-2" x="-1022.7" y="-147.8" width="1947.6" height="1947.6"
        transform="translate(-109.9 .8) rotate(-7.6)" />
    </clipPath>
    <clipPath id="clippath-49">
      <rect class="cls-2" x="-60.9" y="-62.5" width="378.7" height="378.7"
        transform="translate(-48.1 89.2) rotate(-32.6)" />
    </clipPath>
    <clipPath id="clippath-50">
      <rect class="cls-2" x="90.5" y="124" width="30.7" height="9.3" />
    </clipPath>
    <clipPath id="clippath-51">
      <rect class="cls-2" x="14.1" y="11.1" width="179.8" height="179.8"
        transform="translate(-12.5 14.7) rotate(-7.6)" />
    </clipPath>
    <clipPath id="clippath-52">
      <rect class="cls-2" x="-1022.7" y="-147.8" width="1947.5" height="1947.5"
        transform="translate(-109.9 .8) rotate(-7.6)" />
    </clipPath>
    <clipPath id="clippath-53">
      <rect class="cls-2" x="-1022.7" y="-147.8" width="1947.6" height="1947.6"
        transform="translate(-109.9 .8) rotate(-7.6)" />
    </clipPath>
    <clipPath id="clippath-54">
      <rect class="cls-2" x="-60.9" y="-62.5" width="378.7" height="378.7"
        transform="translate(-48.1 89.2) rotate(-32.6)" />
    </clipPath>
    <clipPath id="clippath-55">
      <rect class="cls-2" x="89.2" y="124" width="34.7" height="9.3" />
    </clipPath>
    <clipPath id="clippath-56">
      <rect class="cls-2" x="14.1" y="11.1" width="179.8" height="179.8"
        transform="translate(-12.5 14.7) rotate(-7.6)" />
    </clipPath>
    <clipPath id="clippath-57">
      <rect class="cls-2" x="-1022.7" y="-147.8" width="1947.5" height="1947.5"
        transform="translate(-109.9 .8) rotate(-7.6)" />
    </clipPath>
    <clipPath id="clippath-58">
      <rect class="cls-2" x="-1022.7" y="-147.8" width="1947.6" height="1947.6"
        transform="translate(-109.9 .8) rotate(-7.6)" />
    </clipPath>
    <clipPath id="clippath-59">
      <rect class="cls-2" x="-60.9" y="-62.5" width="378.7" height="378.7"
        transform="translate(-48.1 89.2) rotate(-32.6)" />
    </clipPath>
    <clipPath id="clippath-60">
      <rect class="cls-2" x="74.5" y="129.3" width="17.3" height="9.3" />
    </clipPath>
    <clipPath id="clippath-61">
      <rect class="cls-2" x="14.1" y="11.1" width="179.8" height="179.8"
        transform="translate(-12.5 14.7) rotate(-7.6)" />
    </clipPath>
    <clipPath id="clippath-62">
      <rect class="cls-2" x="-1022.7" y="-147.8" width="1947.5" height="1947.5"
        transform="translate(-109.9 .8) rotate(-7.6)" />
    </clipPath>
    <clipPath id="clippath-63">
      <rect class="cls-2" x="-1022.7" y="-147.8" width="1947.6" height="1947.6"
        transform="translate(-109.9 .8) rotate(-7.6)" />
    </clipPath>
    <clipPath id="clippath-64">
      <rect class="cls-2" x="-60.9" y="-62.5" width="378.7" height="378.7"
        transform="translate(-48.1 89.2) rotate(-32.6)" />
    </clipPath>
    <clipPath id="clippath-65">
      <rect class="cls-2" x="73.2" y="129.3" width="18.7" height="9.3" />
    </clipPath>
    <clipPath id="clippath-66">
      <rect class="cls-2" x="14.1" y="11.1" width="179.8" height="179.8"
        transform="translate(-12.5 14.7) rotate(-7.6)" />
    </clipPath>
    <clipPath id="clippath-67">
      <rect class="cls-2" x="-1022.7" y="-147.8" width="1947.5" height="1947.5"
        transform="translate(-109.9 .8) rotate(-7.6)" />
    </clipPath>
    <clipPath id="clippath-68">
      <rect class="cls-2" x="-1022.7" y="-147.8" width="1947.6" height="1947.6"
        transform="translate(-109.9 .8) rotate(-7.6)" />
    </clipPath>
    <clipPath id="clippath-69">
      <rect class="cls-2" x="-60.9" y="-62.5" width="378.7" height="378.7"
        transform="translate(-48.1 89.2) rotate(-32.6)" />
    </clipPath>
    <clipPath id="clippath-70">
      <rect class="cls-2" x="79.8" y="124" width="16" height="2.7" />
    </clipPath>
    <clipPath id="clippath-71">
      <rect class="cls-2" x="14.1" y="11.1" width="179.8" height="179.8"
        transform="translate(-12.5 14.7) rotate(-7.6)" />
    </clipPath>
    <clipPath id="clippath-72">
      <rect class="cls-2" x="-1022.7" y="-147.8" width="1947.5" height="1947.5"
        transform="translate(-109.9 .8) rotate(-7.6)" />
    </clipPath>
    <clipPath id="clippath-73">
      <rect class="cls-2" x="-1022.7" y="-147.8" width="1947.6" height="1947.6"
        transform="translate(-109.9 .8) rotate(-7.6)" />
    </clipPath>
    <clipPath id="clippath-74">
      <rect class="cls-2" x="-60.9" y="-62.5" width="378.7" height="378.7"
        transform="translate(-48.1 89.2) rotate(-32.6)" />
    </clipPath>
    <clipPath id="clippath-75">
      <rect class="cls-2" x="78.5" y="124" width="18.7" height="4" />
    </clipPath>
    <clipPath id="clippath-76">
      <rect class="cls-2" x="14.1" y="11.1" width="179.8" height="179.8"
        transform="translate(-12.5 14.7) rotate(-7.6)" />
    </clipPath>
    <clipPath id="clippath-77">
      <rect class="cls-2" x="-1022.7" y="-147.8" width="1947.5" height="1947.5"
        transform="translate(-109.9 .8) rotate(-7.6)" />
    </clipPath>
    <clipPath id="clippath-78">
      <rect class="cls-2" x="-1022.7" y="-147.8" width="1947.6" height="1947.6"
        transform="translate(-109.9 .8) rotate(-7.6)" />
    </clipPath>
    <clipPath id="clippath-79">
      <rect class="cls-2" x="-60.9" y="-62.5" width="378.7" height="378.7"
        transform="translate(-48.1 89.2) rotate(-32.6)" />
    </clipPath>
    <clipPath id="clippath-80">
      <rect class="cls-2" x="83.8" y="132" width="17.3" height="16" />
    </clipPath>
    <clipPath id="clippath-81">
      <rect class="cls-2" x="14.1" y="11.1" width="179.8" height="179.8"
        transform="translate(-12.5 14.7) rotate(-7.6)" />
    </clipPath>
    <clipPath id="clippath-82">
      <rect class="cls-2" x="-1022.7" y="-147.8" width="1947.5" height="1947.5"
        transform="translate(-109.9 .8) rotate(-7.6)" />
    </clipPath>
    <clipPath id="clippath-83">
      <rect class="cls-2" x="-1022.7" y="-147.8" width="1947.6" height="1947.6"
        transform="translate(-109.9 .8) rotate(-7.6)" />
    </clipPath>
    <clipPath id="clippath-84">
      <rect class="cls-2" x="-60.9" y="-62.5" width="378.7" height="378.7"
        transform="translate(-48.1 89.2) rotate(-32.6)" />
    </clipPath>
    <clipPath id="clippath-85">
      <rect class="cls-2" x="82.5" y="130.7" width="18.7" height="17.3" />
    </clipPath>
    <clipPath id="clippath-86">
      <rect class="cls-2" x="14.1" y="11.1" width="179.8" height="179.8"
        transform="translate(-12.5 14.7) rotate(-7.6)" />
    </clipPath>
    <clipPath id="clippath-87">
      <rect class="cls-2" x="-1022.7" y="-147.8" width="1947.5" height="1947.5"
        transform="translate(-109.9 .8) rotate(-7.6)" />
    </clipPath>
    <clipPath id="clippath-88">
      <rect class="cls-2" x="-1022.7" y="-147.8" width="1947.6" height="1947.6"
        transform="translate(-109.9 .8) rotate(-7.6)" />
    </clipPath>
    <clipPath id="clippath-89">
      <rect class="cls-2" x="-60.9" y="-62.5" width="378.7" height="378.7"
        transform="translate(-48.1 89.2) rotate(-32.6)" />
    </clipPath>
    <clipPath id="clippath-90">
      <rect class="cls-2" x="78.5" y="76" width="48" height="54.7" />
    </clipPath>
    <clipPath id="clippath-91">
      <rect class="cls-2" x="14.1" y="11.1" width="179.8" height="179.8"
        transform="translate(-12.5 14.7) rotate(-7.6)" />
    </clipPath>
    <clipPath id="clippath-92">
      <rect class="cls-2" x="-1022.7" y="-147.8" width="1947.5" height="1947.5"
        transform="translate(-109.9 .8) rotate(-7.6)" />
    </clipPath>
    <clipPath id="clippath-93">
      <rect class="cls-2" x="-1022.7" y="-147.8" width="1947.6" height="1947.6"
        transform="translate(-109.9 .8) rotate(-7.6)" />
    </clipPath>
    <clipPath id="clippath-94">
      <rect class="cls-2" x="-60.9" y="-62.5" width="378.7" height="378.7"
        transform="translate(-48.1 89.2) rotate(-32.6)" />
    </clipPath>
    <clipPath id="clippath-95">
      <rect class="cls-2" x="75.8" y="74.7" width="53.3" height="58.7" />
    </clipPath>
    <clipPath id="clippath-96">
      <rect class="cls-2" x="14.1" y="11.1" width="179.8" height="179.8"
        transform="translate(-12.5 14.7) rotate(-7.6)" />
    </clipPath>
    <clipPath id="clippath-97">
      <rect class="cls-2" x="-1022.7" y="-147.8" width="1947.5" height="1947.5"
        transform="translate(-109.9 .8) rotate(-7.6)" />
    </clipPath>
    <clipPath id="clippath-98">
      <rect class="cls-2" x="-1022.7" y="-147.8" width="1947.6" height="1947.6"
        transform="translate(-109.9 .8) rotate(-7.6)" />
    </clipPath>
    <clipPath id="clippath-99">
      <rect class="cls-2" x="-60.9" y="-62.5" width="378.7" height="378.7"
        transform="translate(-48.1 89.2) rotate(-32.6)" />
    </clipPath>
    <clipPath id="clippath-100">
      <rect class="cls-2" x="91.8" y="89.3" width="34.7" height="38.7" />
    </clipPath>
    <clipPath id="clippath-101">
      <rect class="cls-2" x="14.1" y="11.1" width="179.8" height="179.8"
        transform="translate(-12.5 14.7) rotate(-7.6)" />
    </clipPath>
    <clipPath id="clippath-102">
      <rect class="cls-2" x="-1022.7" y="-147.8" width="1947.5" height="1947.5"
        transform="translate(-109.9 .8) rotate(-7.6)" />
    </clipPath>
    <clipPath id="clippath-103">
      <rect class="cls-2" x="-1022.7" y="-147.8" width="1947.6" height="1947.6"
        transform="translate(-109.9 .8) rotate(-7.6)" />
    </clipPath>
    <clipPath id="clippath-104">
      <rect class="cls-2" x="-60.9" y="-62.5" width="378.7" height="378.7"
        transform="translate(-48.1 89.2) rotate(-32.6)" />
    </clipPath>
    <clipPath id="clippath-105">
      <rect class="cls-2" x="91.8" y="88" width="34.7" height="40" />
    </clipPath>
    <clipPath id="clippath-106">
      <rect class="cls-2" x="14.1" y="11.1" width="179.8" height="179.8"
        transform="translate(-12.5 14.7) rotate(-7.6)" />
    </clipPath>
    <clipPath id="clippath-107">
      <rect class="cls-2" x="-1022.7" y="-147.8" width="1947.5" height="1947.5"
        transform="translate(-109.9 .8) rotate(-7.6)" />
    </clipPath>
    <clipPath id="clippath-108">
      <rect class="cls-2" x="-1022.7" y="-147.8" width="1947.6" height="1947.6"
        transform="translate(-109.9 .8) rotate(-7.6)" />
    </clipPath>
    <clipPath id="clippath-109">
      <rect class="cls-2" x="-60.9" y="-62.5" width="378.7" height="378.7"
        transform="translate(-48.1 89.2) rotate(-32.6)" />
    </clipPath>
    <clipPath id="clippath-110">
      <rect class="cls-2" x="78.5" y="106.7" width="40" height="5.3" />
    </clipPath>
    <clipPath id="clippath-111">
      <rect class="cls-2" x="14.1" y="11.1" width="179.8" height="179.8"
        transform="translate(-12.5 14.7) rotate(-7.6)" />
    </clipPath>
    <clipPath id="clippath-112">
      <rect class="cls-2" x="-1022.7" y="-147.8" width="1947.5" height="1947.5"
        transform="translate(-109.9 .8) rotate(-7.6)" />
    </clipPath>
    <clipPath id="clippath-113">
      <rect class="cls-2" x="-1022.7" y="-147.8" width="1947.6" height="1947.6"
        transform="translate(-109.9 .8) rotate(-7.6)" />
    </clipPath>
    <clipPath id="clippath-114">
      <rect class="cls-2" x="-60.9" y="-62.5" width="378.7" height="378.7"
        transform="translate(-48.1 89.2) rotate(-32.6)" />
    </clipPath>
    <clipPath id="clippath-115">
      <rect class="cls-2" x="78.5" y="106.7" width="40" height="6.7" />
    </clipPath>
    <clipPath id="clippath-116">
      <rect class="cls-2" x="14.1" y="11.1" width="179.8" height="179.8"
        transform="translate(-12.5 14.7) rotate(-7.6)" />
    </clipPath>
    <clipPath id="clippath-117">
      <rect class="cls-2" x="-1022.7" y="-147.8" width="1947.5" height="1947.5"
        transform="translate(-109.9 .8) rotate(-7.6)" />
    </clipPath>
    <clipPath id="clippath-118">
      <rect class="cls-2" x="-1022.7" y="-147.8" width="1947.6" height="1947.6"
        transform="translate(-109.9 .8) rotate(-7.6)" />
    </clipPath>
    <clipPath id="clippath-119">
      <rect class="cls-2" x="-60.9" y="-62.5" width="378.7" height="378.7"
        transform="translate(-48.1 89.2) rotate(-32.6)" />
    </clipPath>
    <clipPath id="clippath-120">
      <rect class="cls-2" x="83.8" y="84" width="38.7" height="20" />
    </clipPath>
    <clipPath id="clippath-121">
      <rect class="cls-2" x="14.1" y="11.1" width="179.8" height="179.8"
        transform="translate(-12.5 14.7) rotate(-7.6)" />
    </clipPath>
    <clipPath id="clippath-122">
      <rect class="cls-2" x="-1022.7" y="-147.8" width="1947.5" height="1947.5"
        transform="translate(-109.9 .8) rotate(-7.6)" />
    </clipPath>
    <clipPath id="clippath-123">
      <rect class="cls-2" x="-1022.7" y="-147.8" width="1947.6" height="1947.6"
        transform="translate(-109.9 .8) rotate(-7.6)" />
    </clipPath>
    <clipPath id="clippath-124">
      <rect class="cls-2" x="-60.9" y="-62.5" width="378.7" height="378.7"
        transform="translate(-48.1 89.2) rotate(-32.6)" />
    </clipPath>
    <clipPath id="clippath-125">
      <rect class="cls-2" x="71.8" y="113.3" width="52" height="33.3" />
    </clipPath>
    <clipPath id="clippath-126">
      <rect class="cls-2" x="14.1" y="11.1" width="179.8" height="179.8"
        transform="translate(-12.5 14.7) rotate(-7.6)" />
    </clipPath>
    <clipPath id="clippath-127">
      <rect class="cls-2" x="-1022.7" y="-147.8" width="1947.5" height="1947.5"
        transform="translate(-109.9 .8) rotate(-7.6)" />
    </clipPath>
    <clipPath id="clippath-128">
      <rect class="cls-2" x="-1022.7" y="-147.8" width="1947.6" height="1947.6"
        transform="translate(-109.9 .8) rotate(-7.6)" />
    </clipPath>
    <clipPath id="clippath-129">
      <rect class="cls-2" x="-60.9" y="-62.5" width="378.7" height="378.7"
        transform="translate(-48.1 89.2) rotate(-32.6)" />
    </clipPath>
    <clipPath id="clippath-130">
      <rect class="cls-2" x="70.5" y="112" width="56" height="36" />
    </clipPath>
    <clipPath id="clippath-131">
      <rect class="cls-2" x="14.1" y="11.1" width="179.8" height="179.8"
        transform="translate(-12.5 14.7) rotate(-7.6)" />
    </clipPath>
    <clipPath id="clippath-132">
      <rect class="cls-2" x="-1022.7" y="-147.8" width="1947.5" height="1947.5"
        transform="translate(-109.9 .8) rotate(-7.6)" />
    </clipPath>
    <clipPath id="clippath-133">
      <rect class="cls-2" x="-1022.7" y="-147.8" width="1947.6" height="1947.6"
        transform="translate(-109.9 .8) rotate(-7.6)" />
    </clipPath>
    <clipPath id="clippath-134">
      <rect class="cls-2" x="-60.9" y="-62.5" width="378.7" height="378.7"
        transform="translate(-48.1 89.2) rotate(-32.6)" />
    </clipPath>
    <clipPath id="clippath-135">
      <rect class="cls-2" x="87.8" y="121.3" width="33.3" height="9.3" />
    </clipPath>
    <clipPath id="clippath-136">
      <rect class="cls-2" x="14.1" y="11.1" width="179.8" height="179.8"
        transform="translate(-12.5 14.7) rotate(-7.6)" />
    </clipPath>
    <clipPath id="clippath-137">
      <rect class="cls-2" x="-1022.7" y="-147.8" width="1947.5" height="1947.5"
        transform="translate(-109.9 .8) rotate(-7.6)" />
    </clipPath>
    <clipPath id="clippath-138">
      <rect class="cls-2" x="-1022.7" y="-147.8" width="1947.6" height="1947.6"
        transform="translate(-109.9 .8) rotate(-7.6)" />
    </clipPath>
    <clipPath id="clippath-139">
      <rect class="cls-2" x="-60.9" y="-62.5" width="378.7" height="378.7"
        transform="translate(-48.1 89.2) rotate(-32.6)" />
    </clipPath>
    <clipPath id="clippath-140">
      <rect class="cls-2" x="87.8" y="121.3" width="36" height="10.7" />
    </clipPath>
    <clipPath id="clippath-141">
      <rect class="cls-2" x="14.1" y="11.1" width="179.8" height="179.8"
        transform="translate(-12.5 14.7) rotate(-7.6)" />
    </clipPath>
    <clipPath id="clippath-142">
      <rect class="cls-2" x="-1022.7" y="-147.8" width="1947.5" height="1947.5"
        transform="translate(-109.9 .8) rotate(-7.6)" />
    </clipPath>
    <clipPath id="clippath-143">
      <rect class="cls-2" x="-1022.7" y="-147.8" width="1947.6" height="1947.6"
        transform="translate(-109.9 .8) rotate(-7.6)" />
    </clipPath>
    <clipPath id="clippath-144">
      <rect class="cls-2" x="-60.9" y="-62.5" width="378.7" height="378.7"
        transform="translate(-48.1 89.2) rotate(-32.6)" />
    </clipPath>
    <clipPath id="clippath-145">
      <rect class="cls-2" x="71.8" y="126.7" width="17.3" height="8" />
    </clipPath>
    <clipPath id="clippath-146">
      <rect class="cls-2" x="14.1" y="11.1" width="179.8" height="179.8"
        transform="translate(-12.5 14.7) rotate(-7.6)" />
    </clipPath>
    <clipPath id="clippath-147">
      <rect class="cls-2" x="-1022.7" y="-147.8" width="1947.5" height="1947.5"
        transform="translate(-109.9 .8) rotate(-7.6)" />
    </clipPath>
    <clipPath id="clippath-148">
      <rect class="cls-2" x="-1022.7" y="-147.8" width="1947.6" height="1947.6"
        transform="translate(-109.9 .8) rotate(-7.6)" />
    </clipPath>
    <clipPath id="clippath-149">
      <rect class="cls-2" x="-60.9" y="-62.5" width="378.7" height="378.7"
        transform="translate(-48.1 89.2) rotate(-32.6)" />
    </clipPath>
    <clipPath id="clippath-150">
      <rect class="cls-2" x="75.8" y="120" width="18.7" height="4" />
    </clipPath>
    <clipPath id="clippath-151">
      <rect class="cls-2" x="14.1" y="11.1" width="179.8" height="179.8"
        transform="translate(-12.5 14.7) rotate(-7.6)" />
    </clipPath>
    <clipPath id="clippath-152">
      <rect class="cls-2" x="-1022.7" y="-147.8" width="1947.5" height="1947.5"
        transform="translate(-109.9 .8) rotate(-7.6)" />
    </clipPath>
    <clipPath id="clippath-153">
      <rect class="cls-2" x="-1022.7" y="-147.8" width="1947.6" height="1947.6"
        transform="translate(-109.9 .8) rotate(-7.6)" />
    </clipPath>
    <clipPath id="clippath-154">
      <rect class="cls-2" x="-60.9" y="-62.5" width="378.7" height="378.7"
        transform="translate(-48.1 89.2) rotate(-32.6)" />
    </clipPath>
    <clipPath id="clippath-155">
      <rect class="cls-2" x="82.5" y="129.3" width="17.3" height="17.3" />
    </clipPath>
    <clipPath id="clippath-156">
      <rect class="cls-2" x="14.1" y="11.1" width="179.8" height="179.8"
        transform="translate(-12.5 14.7) rotate(-7.6)" />
    </clipPath>
    <clipPath id="clippath-157">
      <rect class="cls-2" x="-1022.7" y="-147.8" width="1947.5" height="1947.5"
        transform="translate(-109.9 .8) rotate(-7.6)" />
    </clipPath>
    <clipPath id="clippath-158">
      <rect class="cls-2" x="-1022.7" y="-147.8" width="1947.6" height="1947.6"
        transform="translate(-109.9 .8) rotate(-7.6)" />
    </clipPath>
    <clipPath id="clippath-159">
      <rect class="cls-2" x="-60.9" y="-62.5" width="378.7" height="378.7"
        transform="translate(-48.1 89.2) rotate(-32.6)" />
    </clipPath>
  </defs>
  <path class="cls-5"
    d="M132.6,148.9c6.8-4.7,12.8-7.2,18-7.3,5.3-.1,9.4,2.1,12.6,6.5,1.5,2.2,2.6,4.2,3.2,6.1.6,1.9.8,3.7.6,5.4-.2,1.7-.6,3.4-1.4,5-.8,1.6-1.7,3.1-2.8,4.6,1.2-.4,2.7-.4,4.6,0,1.9.5,4,1.2,6.3,2.2,2.3,1,4.8,2.2,7.4,3.6,2.6,1.4,5.2,2.7,7.9,4.1,2.6,1.4,5.2,2.7,7.8,4,2.6,1.3,5,2.3,7.3,3.1,2.3.8,4.3,1.3,6.2,1.5s3.3-.2,4.5-1c.5-.3.9-.8,1.3-1.3.3-.5.6-1,.7-1.4l1.8.9c-.3.6-.7,1.3-1.2,2.2-.5.8-1.1,1.7-1.9,2.7-.8,1-1.7,2-2.7,3.1-1,1.1-2.3,2.1-3.8,3.1-2.4,1.7-5.1,2.6-7.9,2.6-2.9,0-5.8-.7-8.9-2.1-3.2-1.5-6.4-3.1-9.7-4.9-3.3-1.8-6.6-3.5-9.8-5.3-3.3-1.8-6.5-3.5-9.7-5.1-3.2-1.7-6.3-3.1-9.2-4.5l-.8-1.8c1.7-.7,2.9-1.6,3.6-2.9.7-1.3,1-2.8.8-4.5-.2-1.7-.7-3.6-1.6-5.6-.9-2-2.1-4.1-3.6-6.2-1.1-1.5-2.2-2.8-3.4-3.9-1.2-1.1-2.5-1.9-3.8-2.5-1.3-.6-2.5-.8-3.7-.8-1.2,0-2.3.4-3.3,1.1-.8.6-1.4,1.1-1.7,1.8-.3.6-.5,1.2-.6,1.8,0,.6,0,1.1.2,1.6.2.5.4.9.7,1.3l31,44.2c1.3,1.9,1.8,3.6,1.4,5.2-.4,1.6-1.6,3.1-3.7,4.5-2.1,1.5-3.9,2.1-5.5,1.9-1.6-.2-3.1-1.2-4.4-3.1l-31.3-44.5c-1-1.4-2.4-1.4-4.3,0-1.4,1-2.6,2.1-3.7,3.5-1.1,1.4-2,2.8-2.6,4.4-.6,1.5-1,3-1,4.5,0,1.5.3,2.8,1.1,4,.6.8,1.1,1.3,1.7,1.7.5.3,1,.5,1.5.5.4,0,.8,0,1.1-.1.3-.2.6-.3.7-.4.6-.4,1-.9,1.3-1.4.3-.5.5-1,.6-1.4.2-.5.3-.9.4-1.3.1-.4.4-.8.8-1,.3-.2.7-.4,1.1-.5.4,0,.9,0,1.4,0,.5,0,1,.3,1.6.7.5.3,1.1.9,1.5,1.6.7,1,1.1,2,1.2,3,.1,1,0,1.9-.2,2.9-.3.9-.7,1.8-1.3,2.5-.6.8-1.3,1.5-2.1,2-1.2.8-2.4,1.4-3.7,1.6-1.3.3-2.5.3-3.6,0-1.2-.3-2.3-.7-3.3-1.5-1-.7-1.9-1.6-2.7-2.7-1.4-2.1-2.3-4.2-2.7-6.3-.3-2.1-.2-4.2.4-6.4.6-2.1,1.6-4.3,3-6.4,1.4-2.1,3.2-4.3,5.2-6.4,2.1-2.1,4.4-4.2,7-6.3,2.6-2.1,5.3-4.2,8.3-6.3Z" />
  <path class="cls-5"
    d="M188.5,165.6c-1.9-3.5-3-6.8-3.4-10-.4-3.2-.2-6.1.6-8.8.8-2.7,2-5.1,3.8-7.1,1.8-2.1,3.9-3.8,6.4-5.1,2.5-1.3,5-2.2,7.7-2.5,2.7-.4,5.3-.2,7.9.6,2.6.8,5.1,2.2,7.5,4.2,2.4,2,4.5,4.8,6.4,8.3,1.9,3.5,3,6.9,3.5,10.1.4,3.3.3,6.3-.4,9s-1.9,5.2-3.7,7.4c-1.7,2.2-3.8,3.9-6.3,5.2-2.5,1.3-5.1,2.1-7.8,2.4-2.7.3-5.4,0-8.1-.8-2.7-.9-5.2-2.3-7.6-4.4-2.4-2.1-4.6-4.9-6.5-8.4ZM212.9,152c-1.1-2.2-2.3-4.2-3.5-6.1-1.2-1.9-2.4-3.5-3.7-4.9-1.3-1.3-2.5-2.2-3.8-2.7-1.3-.5-2.6-.4-3.9.3-1.3.7-2.1,1.8-2.4,3.2-.3,1.4-.2,3,.2,4.8.4,1.8,1.1,3.8,2,5.9,1,2.1,2,4.2,3.1,6.4,1.2,2.2,2.3,4.2,3.6,6.2,1.2,2,2.5,3.6,3.8,5,1.3,1.4,2.6,2.3,3.9,2.9,1.3.5,2.6.5,4-.3,1.3-.7,2.1-1.8,2.4-3.2.3-1.4.2-3.1-.3-5-.5-1.9-1.2-3.9-2.1-6.1-1-2.2-2-4.3-3.2-6.4Z" />
  <path class="cls-5"
    d="M280.4,113.1c-.7-1.9-1.5-3.3-2.2-4.5-.7-1.1-1.4-2-2-2.7-.6-.7-1.1-1.3-1.6-1.7s-.8-.8-1-1.3c-.2-.4-.1-.9,0-1.3.2-.4.5-.8.9-1.2.4-.4.8-.7,1.3-1,.5-.3.8-.5,1.1-.6.8-.3,1.5-.4,1.9-.4s.9.4,1.4,1c.6.7,1.2,1.7,1.8,3,.6,1.3,1.2,2.7,1.8,4.2.9,2.2,1.7,4.6,2.4,7.3.8,2.7,1.4,5.5,1.9,8.3.5,2.8.8,5.7.9,8.5.1,2.8,0,5.4-.5,7.8-.5,2.4-1.3,4.5-2.4,6.2-1.1,1.8-2.7,3-4.7,3.8-1.6.6-3.1.9-4.6.7-1.5-.2-3-.6-4.4-1.3-1.4-.7-2.8-1.7-4.1-2.9-1.3-1.2-2.6-2.5-3.9-4,0,2,0,3.9-.4,5.7-.3,1.8-.7,3.5-1.3,5-.6,1.5-1.4,2.8-2.4,3.9-1,1.1-2.2,1.9-3.6,2.5-1.8.7-3.5.9-5.2.7-1.7-.3-3.3-.8-4.9-1.8-1.6-.9-3.1-2.2-4.5-3.6-1.5-1.5-2.9-3.1-4.2-4.9-1.3-1.8-2.6-3.6-3.8-5.6-1.2-2-2.3-3.9-3.3-5.7-1-1.8-2-3.6-2.8-5.2s-1.6-3-2.2-4.2c-.6-1-1.3-1.8-1.9-2.3-.6-.5-1.4-.5-2.3-.2-.5.2-.9.4-1.1.8-.3.3-.5.7-.8,1.1l-1.3-.7c.4-.8,1-1.6,1.6-2.4.6-.8,1.3-1.6,2.1-2.4.8-.8,1.7-1.5,2.6-2.2,1-.7,2.1-1.3,3.2-1.7,1.7-.7,3.2-.9,4.5-.7,1.3.2,2.4.6,3.3,1.2,1,.6,1.8,1.4,2.4,2.3.6.9,1.2,1.7,1.6,2.5,2.2,4.1,4.2,7.6,5.9,10.7,1.8,3.1,3.4,5.6,4.8,7.5,1.4,2,2.7,3.4,3.8,4.3,1.1.9,2.1,1.1,3,.8.6-.2,1.1-.7,1.4-1.5.4-.7.6-1.7.8-2.8.2-1.1.2-2.4.2-3.9,0-1.5-.2-3-.5-4.7-.9-1.4-1.7-2.9-2.5-4.3-.8-1.5-1.5-2.9-2.3-4.2-.7-1.3-1.4-2.6-2-3.7-.6-1.2-1.2-2.2-1.7-3-1.5-2.5-2-4.6-1.6-6.3.4-1.7,2-3.1,4.8-4.2,1.2-.5,2.3-.8,3.2-.9.9-.1,1.8,0,2.5.4.8.4,1.5,1,2.3,1.9.7.9,1.5,2,2.3,3.5,2.2,4,4.2,7.6,6,10.8,1.8,3.1,3.5,5.7,4.9,7.8,1.5,2.1,2.8,3.6,3.9,4.5,1.1.9,2.2,1.2,3.1.9,1-.4,1.6-1.3,2-2.8.4-1.5.5-3.4.3-5.5-.2-2.2-.6-4.6-1.3-7.3-.7-2.7-1.6-5.4-2.6-8.1Z" />
  <path class="cls-5"
    d="M321.1,110.4c0-.3-.3-1-.5-2-.3-1-.6-2.1-1-3.4-.4-1.3-.8-2.6-1.4-4-.5-1.4-1.1-2.7-1.7-3.8-1-.7-2-1.3-3-1.8-1-.5-2.2-.6-3.6-.2-2.3.6-3.6,2.5-3.9,5.8-.3,3.3.4,8,2,14.3.7,2.8,1.5,5.2,2.4,7.5.8,2.2,1.7,4.1,2.7,5.6,1,1.5,2,2.6,3,3.3,1,.7,2.1.9,3.2.6,4.7-1.2,5.3-8.5,1.8-22ZM315.5,91.2c-1.3-2.8-2.8-5.3-4.5-7.6-1.7-2.3-3.4-4.2-5.3-5.6-1.9-1.5-3.8-2.5-5.9-3.1-2.1-.6-4.1-.6-6.2,0-1.2.3-2.2.7-3.1,1.3-.9.5-1.6,1.1-2.2,1.7-.6.6-1.1,1.1-1.5,1.6-.4.5-.6.8-.8,1.1l-1.6-1.2c.5-1.1,1.1-2.2,2-3.2.8-1.1,1.7-2,2.8-2.9,1.1-.9,2.2-1.7,3.5-2.3,1.2-.7,2.5-1.2,3.8-1.5,4.3-1.1,8.4-1.2,12.2-.1,3.8,1,7.2,3,10.4,5.9,3.1,2.9,5.9,6.6,8.3,11.3,2.4,4.6,4.4,9.9,5.9,15.9,1.3,4.8,1.9,9.2,1.9,13.2,0,3.9-.6,7.4-1.8,10.3-1.2,2.9-2.9,5.4-5.2,7.3-2.3,1.9-5,3.3-8.3,4.2-2.3.6-4.7.8-7.2.6-2.5-.2-5-.9-7.4-2.3-2.4-1.3-4.6-3.3-6.5-6-2-2.6-3.5-6.1-4.6-10.4-1-3.7-1.3-7.1-1-10.3.3-3.2,1-5.9,2.3-8.4,1.3-2.4,2.9-4.5,4.9-6.1,2.1-1.7,4.4-2.8,7-3.5,1-.3,1.9-.4,2.7-.5.8,0,1.6,0,2.3,0,.7,0,1.2.2,1.7.4.5.2,1,.3,1.4.5Z" />
  <path class="cls-5"
    d="M375.8,84.4c.9,5.5,1.2,10.9,1,16.1-.2,5.3-.9,10.3-2.1,15.1-1.1,4.8-2.7,9.2-4.7,13.4-2,4.1-4.2,7.8-6.8,10.9-2.6,3.1-5.4,5.7-8.6,7.7-3.1,2-6.4,3.3-9.9,3.9-2.6.4-4.7.3-6.3-.3-1.6-.6-2.5-1.7-2.8-3.2,0-.6,0-1.1,0-1.7,0-.6.2-1.1.5-1.6.2-.5.5-.9.9-1.2.4-.3.8-.5,1.3-.6.6,0,1.1.1,1.5.6.5.5,1,1.1,1.5,1.7.5.6,1.2,1.1,1.8,1.6.7.5,1.6.6,2.6.5,1.3-.2,2.7-.7,4.1-1.4,1.4-.7,2.8-1.6,4.1-2.7,1.3-1.1,2.7-2.4,3.9-3.9,1.3-1.5,2.5-3.1,3.7-4.9-1.3-2.9-2.8-6-4.5-9.4-1.7-3.4-3.4-6.8-5.2-10.3-1.8-3.4-3.6-6.7-5.5-9.9-1.8-3.2-3.6-5.9-5.2-8.4-1.6-2.4-3.1-4.3-4.5-5.7-1.4-1.4-2.5-2-3.4-1.9-.6,0-1,.3-1.3.5-.3.2-.6.5-1,.9l-1.1-1c.5-.6,1.1-1.2,1.6-1.9.6-.7,1.3-1.3,2.1-1.9.8-.6,1.8-1.1,3-1.6,1.2-.5,2.6-.9,4.2-1.1,1.8-.3,3.6-.2,5.3.4,1.7.6,3.4,1.9,5,3.9,1.2,1.5,2.5,3.3,3.9,5.5,1.4,2.1,2.8,4.6,4.3,7.2,1.5,2.7,3,5.6,4.6,8.7,1.6,3.1,3.2,6.4,4.9,9.9,1.2-4.2,2-8.5,2.4-13.1.4-4.6.3-9.1-.5-13.8-.3-1.6-.6-3-1-4.2-.4-1.1-.8-2.1-1.2-2.9-.4-.8-.8-1.4-1-2-.3-.6-.5-1.1-.6-1.5,0-.4,0-.8.4-1.2.3-.4.7-.7,1.2-1,.5-.3,1-.5,1.5-.6.5-.2,1-.3,1.3-.3.8-.1,1.4,0,1.9.2.5.3.9.7,1.2,1.3.3.6.6,1.3.7,2.2.2.9.3,1.8.5,2.9Z" />
  <path class="cls-5"
    d="M423,60.9c0-1-.4-1.7-1.1-2.2-.7-.5-1.5-.7-2.3-.7-1.7,0-3.3.2-5,.7-1.6.5-3.1,1.2-4.3,2.1-1.3.9-2.3,1.9-3.1,3.1-.8,1.2-1.2,2.5-1.2,3.9,0,1,.1,1.8.4,2.3.3.6.6,1,.9,1.3.3.3.7.5,1,.5.4,0,.6.1.8.1.8,0,1.4-.1,1.9-.4.5-.3.9-.5,1.3-.8.4-.3.8-.6,1.1-.8.3-.3.8-.4,1.2-.4s.7,0,1.1.3c.4.2.8.4,1.1.8.3.4.6.8.9,1.4.3.6.4,1.3.4,2.1,0,1.2-.2,2.3-.7,3.1-.5.9-1.1,1.6-1.8,2.2-.8.6-1.6,1-2.6,1.3s-1.9.4-2.9.4c-1.5,0-2.8-.3-3.9-.8-1.2-.5-2.2-1.2-3-2.1-.8-.9-1.4-1.9-1.9-3.1-.4-1.2-.6-2.4-.6-3.8,0-3.8,1-6.9,2.9-9.3,1.9-2.4,4.5-4.4,7.8-5.8,3.3-1.4,7.2-2.4,11.5-2.9,4.4-.5,9.1-.8,14-.8,5.6,0,10.7.6,15.3,1.8,4.6,1.1,8.5,3,11.7,5.5,3.3,2.6,5.8,5.9,7.5,10,1.8,4.1,2.6,9.1,2.6,15,0,5.9-1,11.2-2.8,15.8s-4.4,8.4-7.7,11.5c-3.2,3.1-7,5.5-11.4,7.1-4.3,1.6-9,2.4-14,2.4-3.3,0-6-.2-8-.5-2-.3-3.6-.9-4.7-1.6-1.1-.8-1.8-1.8-2.2-3.1-.3-1.3-.5-2.9-.5-4.9v-51ZM437.9,112.3c0,1.7.4,3,1.1,3.7.8.7,1.9,1.1,3.4,1.1,2.3,0,4.4-.5,6.3-1.5,1.9-1,3.6-2.7,5-5.1,1.4-2.4,2.5-5.7,3.3-9.8.8-4.1,1.2-9.2,1.2-15.3,0-4.1-.2-7.7-.7-10.7-.5-3-1.2-5.6-2-7.7-.8-2.1-1.7-3.8-2.8-5.1-1-1.3-2.1-2.4-3.2-3.1-1.1-.8-2.2-1.3-3.2-1.5-1-.3-2-.4-2.8-.4-2,0-3.4.4-4.3,1.3-.9.9-1.3,2.4-1.3,4.7v49.4Z" />
  <path class="cls-5"
    d="M502.8,101.6c0-.8,0-1.3-.5-1.8-.4-.5-1-.7-1.8-.8-1.1-.1-2.1,0-3.1.3-1,.4-1.9,1-2.8,1.8s-1.6,1.9-2.2,3.2c-.6,1.3-1,2.9-1.2,4.7-.2,1.8-.3,3.2-.2,4.4.1,1.2.4,2.1.7,2.9.3.7.8,1.3,1.3,1.6.5.3,1.1.6,1.8.6.8,0,1.6,0,2.3-.3.7-.3,1.4-.8,2-1.3.6-.6,1.1-1.2,1.5-2,.4-.8.7-1.5.8-2.3l1.4-11ZM498.1,81c-1-.1-2-.1-2.9,0-.9.1-1.7.3-2.4.6-.7.3-1.2.6-1.6,1-.4.4-.6.8-.7,1.2,0,.4.1.8.6,1.1.4.3.9.5,1.5.9.5.3,1,.8,1.4,1.3.4.5.6,1.3.4,2.2,0,.6-.3,1.2-.6,1.7-.3.5-.7.9-1.2,1.3-.5.3-1,.6-1.6.8-.6.2-1.2.2-1.9.1-1.7-.2-3-.9-3.9-2.2-.9-1.3-1.2-2.9-1-4.8.2-1.8.9-3.3,2-4.5,1.1-1.2,2.5-2.1,4.2-2.8,1.7-.7,3.5-1.1,5.5-1.2,2-.2,4-.1,6,.1,2.3.3,4.6.8,6.6,1.6,2.1.8,3.9,1.8,5.4,3.1,1.5,1.3,2.6,2.9,3.4,4.7.8,1.8,1,4,.7,6.4l-3.2,25.5c0,.3,0,.6,0,.9,0,.3,0,.6.1.9,0,.3.3.6.5.8.2.2.6.3,1,.4.5,0,1.1,0,1.6-.4.5-.4,1-.7,1.4-1.1l1,1.1c-.5.6-1.1,1.2-1.9,1.9-.7.7-1.6,1.3-2.6,1.8-1,.5-2.1,1-3.4,1.3-1.3.3-2.7.4-4.2.2-1.9-.2-3.5-1-4.9-2.3-1.3-1.3-2.1-3.2-2.3-5.6-1.1,1.2-2.3,2.1-3.4,2.9-1.1.8-2.3,1.3-3.5,1.7-1.2.4-2.3.7-3.4.8-1.1.1-2.2,0-3.4,0-1.4-.2-2.8-.6-4.1-1.2-1.3-.6-2.4-1.5-3.4-2.6-.9-1.1-1.6-2.5-2.1-4.1-.4-1.7-.5-3.6-.2-5.9.3-2.7,1.2-4.9,2.5-6.5,1.3-1.6,2.9-2.9,4.8-3.9,1.9-1,4-1.7,6.4-2.3,2.3-.6,4.8-1.2,7.2-1.8,1.8-.5,3.3-1.4,4.2-2.6,1-1.3,1.5-2.6,1.7-4.1.3-2.2-.2-4.1-1.3-5.6-1.1-1.5-2.8-2.4-5.1-2.7Z" />
  <path class="cls-5"
    d="M546.2,89.1l-6.8,33c-.3,1.6-.3,2.7.2,3.4.5.7,1.2,1.2,2.3,1.4.8.2,1.6,0,2.3-.2.7-.3,1.3-.7,1.9-1.2.7-.5,1.3-1.1,1.8-1.9l1.3.9c-.6.8-1.4,1.8-2.2,2.8-.8,1-1.9,1.9-3.1,2.6-1.2.8-2.6,1.3-4.3,1.7-1.7.3-3.6.3-6-.2-1.3-.3-2.5-.7-3.7-1.4-1.1-.6-2.1-1.5-2.8-2.5-.8-1-1.3-2.2-1.6-3.6-.3-1.4-.3-2.9,0-4.7l6.8-33-5-1,.7-3.2c.8.2,2,.2,3.6,0,1.6-.1,3.3-.5,5-1.2,1.8-.7,3.5-1.7,5.2-3.1,1.7-1.4,3.1-3.3,4.1-5.7l3.6.7-2.7,13.1,7.3,1.5c2.4.5,3.7.3,3.8-.5,0-.3,0-.5-.3-.7-.3-.2-.6-.4-.9-.6-.3-.3-.6-.5-.9-.9-.2-.4-.3-.9-.1-1.6.2-.8.6-1.4,1.2-1.8.6-.4,1.4-.5,2.2-.3.5.1,1,.3,1.3.6.4.3.6.7.8,1.1.2.4.3.9.4,1.4,0,.5,0,1,0,1.5-.4,1.9-1.3,3.4-2.6,4.3-1.3.9-3.3,1.1-5.7.6l-6.9-1.4Z" />
  <path class="cls-5"
    d="M577.6,117.5c.2-.7.1-1.3-.2-1.9-.4-.5-.9-.9-1.6-1.1-1-.3-2.1-.3-3.1-.1-1,.2-2.1.6-3,1.4-1,.7-1.8,1.6-2.6,2.9-.8,1.2-1.4,2.7-1.9,4.4-.5,1.7-.8,3.1-.9,4.3,0,1.2,0,2.1.3,2.9.2.8.6,1.4,1.1,1.8.5.4,1,.7,1.6.9.8.2,1.5.2,2.3,0,.8-.2,1.5-.5,2.2-1,.7-.5,1.3-1,1.8-1.7.5-.7.9-1.4,1.1-2.1l3.1-10.7ZM576.2,96.4c-1-.3-1.9-.4-2.9-.4-.9,0-1.7,0-2.4.2s-1.3.4-1.8.7c-.5.3-.8.7-.9,1.1-.1.4,0,.8.4,1.1.4.3.8.7,1.3,1.1.5.4.9.9,1.2,1.5.3.6.3,1.3,0,2.3-.2.6-.5,1.1-.9,1.6-.4.4-.9.8-1.4,1.1-.5.3-1.1.4-1.8.5-.6,0-1.2,0-1.9-.2-1.6-.5-2.8-1.4-3.5-2.8-.7-1.4-.8-3-.2-4.9.5-1.8,1.4-3.1,2.7-4.1,1.3-1,2.8-1.7,4.6-2.1,1.7-.4,3.6-.5,5.6-.4,2,.2,4,.5,5.9,1.1,2.3.7,4.4,1.5,6.3,2.6,1.9,1.1,3.5,2.4,4.8,4,1.3,1.5,2.1,3.3,2.6,5.2.5,1.9.4,4.1-.3,6.4l-7.1,24.7c0,.3-.1.5-.2.9,0,.3,0,.6,0,.9,0,.3.2.6.3.8.2.2.5.4,1,.6.5.1,1,0,1.6-.2.6-.3,1.1-.5,1.6-.8l.8,1.2c-.6.5-1.3,1-2.1,1.6-.8.6-1.8,1-2.8,1.4-1.1.4-2.2.6-3.5.7-1.3.1-2.7,0-4.1-.5-1.8-.5-3.3-1.6-4.4-3.1-1.1-1.5-1.6-3.5-1.3-5.9-1.3,1-2.6,1.8-3.8,2.3-1.2.6-2.5.9-3.7,1.2-1.2.2-2.4.3-3.5.2-1.1,0-2.2-.3-3.3-.6-1.4-.4-2.7-1-3.9-1.9-1.2-.8-2.2-1.8-2.9-3.1-.8-1.3-1.2-2.7-1.4-4.4-.2-1.7,0-3.6.7-5.8.8-2.6,1.9-4.7,3.4-6,1.5-1.4,3.3-2.4,5.4-3.1,2-.7,4.3-1.1,6.7-1.3,2.4-.2,4.9-.4,7.4-.7,1.9-.2,3.4-.8,4.6-1.9,1.2-1.1,1.9-2.3,2.3-3.7.6-2.2.5-4.1-.4-5.7-.9-1.7-2.4-2.8-4.6-3.5Z" />
  <path class="cls-5"
    d="M622.4,111.9l-11.8,31.5c-.6,1.5-.7,2.6-.3,3.4.3.8,1,1.4,2,1.8.8.3,1.5.3,2.3.1.8-.2,1.5-.5,2.1-.9.8-.4,1.5-.9,2.1-1.6l1.1,1.1c-.8.7-1.6,1.5-2.6,2.4-1,.9-2.2,1.6-3.5,2.1-1.3.6-2.8.9-4.5,1-1.7,0-3.7-.3-5.9-1.1-1.3-.5-2.4-1.1-3.4-1.9-1-.8-1.8-1.8-2.4-2.9-.6-1.1-.9-2.4-1-3.8,0-1.4.2-2.9.8-4.6l11.9-31.6-4.8-1.8,1.2-3.1c.8.3,2,.5,3.5.6,1.6.1,3.3,0,5.1-.4,1.9-.4,3.7-1.2,5.6-2.3,1.9-1.1,3.5-2.8,5-5l3.4,1.3-4.7,12.6,7,2.6c2.3.9,3.5.9,3.8.1.1-.3,0-.5-.2-.8s-.5-.4-.8-.7c-.3-.3-.5-.6-.7-1-.2-.4-.1-.9.1-1.6.3-.8.8-1.3,1.4-1.6.7-.3,1.4-.3,2.2,0,.5.2.9.5,1.2.8.3.4.5.8.6,1.2.1.4.2.9.1,1.4,0,.5-.1,1-.3,1.4-.7,1.8-1.8,3.1-3.3,3.8-1.5.7-3.4.6-5.8-.3l-6.6-2.5Z" />
  <path class="cls-5"
    d="M649.5,128.5c1.7-1,3.5-1.7,5.3-2.3.8-.3,1.6-.5,2.4-.6.9-.2,1.8-.3,2.7-.3.9,0,1.8,0,2.7.2.9.2,1.8.4,2.6.8,1.8.9,3.3,2,4.4,3.4,1.1,1.4,1.8,3.2,2,5.3.2,2.1,0,4.7-.9,7.7-.8,3-2.1,6.5-4,10.6-1.9,4-3.9,7.3-6,9.9-2.1,2.6-4.2,4.7-6.3,6.2-2.1,1.5-4.2,2.6-6.3,3.2-2.1.6-4,1-5.9,1-1.8,0-3.5-.1-5-.5-1.5-.4-2.8-.8-3.8-1.2l.4-1.9c1.4.3,2.7.2,4.1-.1,1.4-.4,2.8-1.3,4.4-2.9,1.5-1.6,3.2-3.9,5.1-6.9,1.8-3,4-7,6.3-12.1,1.6-3.5,2.8-6.3,3.4-8.5.7-2.2,1-4,1-5.3,0-1.3-.2-2.3-.7-3-.5-.7-1-1.1-1.7-1.4-.8-.4-1.6-.5-2.4-.4-.8.1-1.6.4-2.3.7-.7.3-1.4.7-1.9,1.1-.6.4-1,.7-1.4.8l-13,27.5c-.2.4-.4.8-.8,1.2-.3.5-.8.8-1.5,1.1-.6.3-1.5.3-2.4.3-1,0-2.2-.4-3.7-1.1-1.5-.7-2.5-1.4-3.2-2.2-.7-.7-1.1-1.4-1.3-2.1s-.3-1.3-.1-1.8c.1-.5.3-1,.4-1.3l25-53.1c.4-.8.5-1.6.4-2.3,0-.8-.6-1.3-1.4-1.8-.5-.2-.9-.4-1.4-.4-.4,0-.9,0-1.4.1l-.4-1.4c.9-.2,1.8-.4,2.8-.6,1-.2,2.1-.2,3.2-.1,1.1,0,2.2.2,3.4.4,1.2.3,2.3.6,3.5,1.2,1.8.8,3,1.7,3.8,2.7.8.9,1.2,1.9,1.4,2.8.1.9,0,1.8-.2,2.6-.3.8-.6,1.5-.8,2.1l-10.5,22.4Z" />
  <path class="cls-5"
    d="M671.7,156.2c2-3.4,4.3-6.1,6.8-8.1,2.5-2,5.1-3.3,7.8-4.1,2.7-.7,5.4-.9,8.1-.4,2.7.4,5.3,1.4,7.6,2.8,2.4,1.4,4.5,3.2,6.2,5.3,1.7,2.1,2.9,4.5,3.6,7.1.7,2.6.8,5.5.2,8.6-.5,3.1-1.8,6.4-3.8,9.8-2,3.4-4.3,6.1-6.9,8.2-2.6,2-5.2,3.5-7.9,4.3-2.7.8-5.5,1-8.2.6-2.7-.4-5.3-1.3-7.7-2.7-2.4-1.4-4.4-3.2-6.1-5.4-1.7-2.2-2.8-4.6-3.4-7.3-.6-2.7-.7-5.6-.1-8.8s1.8-6.5,3.9-9.9ZM696,170.2c1.3-2.1,2.4-4.1,3.4-6.2,1-2,1.8-3.9,2.3-5.7.5-1.8.6-3.3.4-4.7-.3-1.4-1-2.4-2.3-3.2-1.3-.8-2.6-.9-3.9-.4-1.3.5-2.7,1.4-4,2.7-1.3,1.3-2.7,2.9-4,4.8-1.3,1.9-2.6,3.9-3.8,6-1.2,2.1-2.4,4.2-3.5,6.3-1.1,2.1-1.8,4-2.4,5.8-.5,1.8-.7,3.4-.5,4.9s.9,2.5,2.2,3.3c1.3.8,2.6.9,4,.4,1.4-.5,2.8-1.5,4.1-2.9,1.4-1.4,2.8-3,4.1-5,1.4-1.9,2.7-4,3.9-6Z" />
  <path class="cls-5"
    d="M735.5,198.6c2.3-3.1,3.9-5.6,5-7.7,1.1-2.1,1.8-3.8,2-5.1.3-1.3.2-2.3-.1-3s-.8-1.3-1.4-1.7c-.7-.5-1.5-.8-2.3-.8-.8,0-1.6,0-2.4.3-.8.2-1.5.4-2.1.7-.6.3-1.1.5-1.5.6l-18.1,24.5c-.2.3-.6.7-1,1-.4.4-1,.6-1.7.8-.7.1-1.5,0-2.4-.2-1-.3-2.1-.9-3.4-1.8-1.3-1-2.2-1.9-2.7-2.7-.5-.8-.8-1.6-.9-2.3s0-1.3.2-1.8c.2-.5.4-.9.6-1.1l20.9-28.3c.5-.7.8-1.4.9-2.2,0-.8-.3-1.5-1.1-2-.4-.3-.8-.5-1.2-.6-.4,0-.9,0-1.4,0v-1.5c.8,0,1.8,0,2.8,0,1,0,2.1.2,3.1.5,1.1.3,2.1.6,3.2,1.1,1.1.5,2.1,1.1,3.2,1.8,1.6,1.2,2.6,2.4,3.1,3.5.5,1.2.7,2.3.6,3.3s-.4,2-1,2.9c-.5.8-.9,1.5-1.3,2.1,1.8-.6,3.7-1,5.6-1.2.8,0,1.6-.1,2.5-.1s1.8,0,2.7.2c.9.1,1.8.4,2.6.7.9.3,1.7.8,2.4,1.3,1.7,1.2,2.9,2.6,3.7,4.2.8,1.6,1.1,3.4.9,5.6-.2,2.1-1,4.6-2.4,7.4-1.3,2.8-3.4,6-6,9.6-2.6,3.5-5.2,6.4-7.8,8.5-2.6,2.1-5,3.7-7.4,4.8-2.4,1.1-4.6,1.7-6.8,1.9-2.2.2-4.1.2-5.9-.2-1.8-.3-3.4-.8-4.8-1.4-1.4-.6-2.6-1.3-3.5-1.9l.7-1.8c.8.4,1.7.6,2.6.7.9,0,1.9,0,2.9-.4,1-.3,2.2-.9,3.4-1.7,1.2-.8,2.5-1.9,4-3.3,1.5-1.4,3.1-3.2,4.9-5.3,1.8-2.1,3.8-4.7,6-7.7Z" />
  <path class="cls-4"
    d="M128.5,144.8c6.8-4.7,12.8-7.2,18-7.3,5.3-.1,9.4,2.1,12.6,6.5,1.5,2.2,2.6,4.2,3.2,6.1.6,1.9.8,3.7.6,5.4-.2,1.7-.6,3.4-1.4,5-.8,1.6-1.7,3.1-2.8,4.6,1.2-.4,2.7-.4,4.6,0,1.9.5,4,1.2,6.3,2.2,2.3,1,4.8,2.2,7.4,3.6,2.6,1.4,5.2,2.7,7.9,4.1,2.6,1.4,5.2,2.7,7.8,4,2.6,1.3,5,2.3,7.3,3.1,2.3.8,4.3,1.3,6.2,1.5s3.3-.2,4.5-1c.5-.3.9-.8,1.3-1.3.3-.5.6-1,.7-1.4l1.8.9c-.3.6-.7,1.3-1.2,2.2-.5.8-1.1,1.7-1.9,2.7-.8,1-1.7,2-2.7,3.1-1,1.1-2.3,2.1-3.8,3.1-2.4,1.7-5.1,2.6-7.9,2.6-2.9,0-5.8-.7-8.9-2.1-3.2-1.5-6.4-3.1-9.7-4.9-3.3-1.8-6.6-3.5-9.8-5.3-3.3-1.8-6.5-3.5-9.7-5.1-3.2-1.7-6.3-3.1-9.2-4.5l-.8-1.8c1.7-.7,2.9-1.6,3.6-2.9.7-1.3,1-2.8.8-4.5-.2-1.7-.7-3.6-1.6-5.6-.9-2-2.1-4.1-3.6-6.2-1.1-1.5-2.2-2.8-3.4-3.9-1.2-1.1-2.5-1.9-3.8-2.5-1.3-.6-2.5-.8-3.7-.8-1.2,0-2.3.4-3.3,1.1-.8.6-1.4,1.1-1.7,1.8-.3.6-.5,1.2-.6,1.8,0,.6,0,1.1.2,1.6.2.5.4.9.7,1.3l31,44.2c1.3,1.9,1.8,3.6,1.4,5.2-.4,1.6-1.6,3.1-3.7,4.5-2.1,1.5-3.9,2.1-5.5,1.9-1.6-.2-3.1-1.2-4.4-3.1l-31.3-44.5c-1-1.4-2.4-1.4-4.3,0-1.4,1-2.6,2.1-3.7,3.5-1.1,1.4-2,2.8-2.6,4.4-.6,1.5-1,3-1,4.5,0,1.5.3,2.8,1.1,4,.6.8,1.1,1.3,1.7,1.7.5.3,1,.5,1.5.5.4,0,.8,0,1.1-.1.3-.2.6-.3.7-.4.6-.4,1-.9,1.3-1.4.3-.5.5-1,.6-1.4.2-.5.3-.9.4-1.3.1-.4.4-.8.8-1,.3-.2.7-.4,1.1-.5.4,0,.9,0,1.4,0,.5,0,1,.3,1.6.7.5.3,1.1.9,1.5,1.6.7,1,1.1,2,1.2,3,.1,1,0,1.9-.2,2.9-.3.9-.7,1.8-1.3,2.5-.6.8-1.3,1.5-2.1,2-1.2.8-2.4,1.4-3.7,1.6-1.3.3-2.5.3-3.6,0-1.2-.3-2.3-.7-3.3-1.5-1-.7-1.9-1.6-2.7-2.7-1.4-2.1-2.3-4.2-2.7-6.3-.3-2.1-.2-4.2.4-6.4.6-2.1,1.6-4.3,3-6.4,1.4-2.1,3.2-4.3,5.2-6.4,2.1-2.1,4.4-4.2,7-6.3,2.6-2.1,5.3-4.2,8.3-6.3Z" />
  <path class="cls-4"
    d="M184.3,161.5c-1.9-3.5-3-6.8-3.4-10-.4-3.2-.2-6.1.6-8.8.8-2.7,2-5.1,3.8-7.1,1.8-2.1,3.9-3.8,6.4-5.1,2.5-1.3,5-2.2,7.7-2.5,2.7-.4,5.3-.2,7.9.6,2.6.8,5.1,2.2,7.5,4.2,2.4,2,4.5,4.8,6.4,8.3,1.9,3.5,3,6.9,3.5,10.1.4,3.3.3,6.3-.4,9s-1.9,5.2-3.7,7.4c-1.7,2.2-3.8,3.9-6.3,5.2-2.5,1.3-5.1,2.1-7.8,2.4-2.7.3-5.4,0-8.1-.8-2.7-.9-5.2-2.3-7.6-4.4-2.4-2.1-4.6-4.9-6.5-8.4ZM208.8,147.9c-1.1-2.2-2.3-4.2-3.5-6.1-1.2-1.9-2.4-3.5-3.7-4.9-1.3-1.3-2.5-2.2-3.8-2.7-1.3-.5-2.6-.4-3.9.3-1.3.7-2.1,1.8-2.4,3.2-.3,1.4-.2,3,.2,4.8.4,1.8,1.1,3.8,2,5.9,1,2.1,2,4.2,3.1,6.4,1.2,2.2,2.3,4.2,3.6,6.2,1.2,2,2.5,3.6,3.8,5,1.3,1.4,2.6,2.3,3.9,2.9,1.3.5,2.6.5,4-.3,1.3-.7,2.1-1.8,2.4-3.2.3-1.4.2-3.1-.3-5-.5-1.9-1.2-3.9-2.1-6.1-1-2.2-2-4.3-3.2-6.4Z" />
  <path class="cls-4"
    d="M276.3,108.9c-.7-1.9-1.5-3.3-2.2-4.5-.7-1.1-1.4-2-2-2.7-.6-.7-1.1-1.3-1.6-1.7s-.8-.8-1-1.3c-.2-.4-.1-.9,0-1.3.2-.4.5-.8.9-1.2.4-.4.8-.7,1.3-1,.5-.3.8-.5,1.1-.6.8-.3,1.5-.4,1.9-.4s.9.4,1.4,1c.6.7,1.2,1.7,1.8,3,.6,1.3,1.2,2.7,1.8,4.2.9,2.2,1.7,4.6,2.4,7.3.8,2.7,1.4,5.5,1.9,8.3.5,2.8.8,5.7.9,8.5.1,2.8,0,5.4-.5,7.8-.5,2.4-1.3,4.5-2.4,6.2-1.1,1.8-2.7,3-4.7,3.8-1.6.6-3.1.9-4.6.7-1.5-.2-3-.6-4.4-1.3-1.4-.7-2.8-1.7-4.1-2.9-1.3-1.2-2.6-2.5-3.9-4,0,2,0,3.9-.4,5.7-.3,1.8-.7,3.5-1.3,5-.6,1.5-1.4,2.8-2.4,3.9-1,1.1-2.2,1.9-3.6,2.5-1.8.7-3.5.9-5.2.7-1.7-.3-3.3-.8-4.9-1.8-1.6-.9-3.1-2.2-4.5-3.6-1.5-1.5-2.9-3.1-4.2-4.9-1.3-1.8-2.6-3.6-3.8-5.6-1.2-2-2.3-3.9-3.3-5.7-1-1.8-2-3.6-2.8-5.2s-1.6-3-2.2-4.2c-.6-1-1.3-1.8-1.9-2.3-.6-.5-1.4-.5-2.3-.2-.5.2-.9.4-1.1.8-.3.3-.5.7-.8,1.1l-1.3-.7c.4-.8,1-1.6,1.6-2.4.6-.8,1.3-1.6,2.1-2.4.8-.8,1.7-1.5,2.6-2.2,1-.7,2.1-1.3,3.2-1.7,1.7-.7,3.2-.9,4.5-.7,1.3.2,2.4.6,3.3,1.2,1,.6,1.8,1.4,2.4,2.3.6.9,1.2,1.7,1.6,2.5,2.2,4.1,4.2,7.6,5.9,10.7,1.8,3.1,3.4,5.6,4.8,7.5,1.4,2,2.7,3.4,3.8,4.3,1.1.9,2.1,1.1,3,.8.6-.2,1.1-.7,1.4-1.5.4-.7.6-1.7.8-2.8.2-1.1.2-2.4.2-3.9,0-1.5-.2-3-.5-4.7-.9-1.4-1.7-2.9-2.5-4.3-.8-1.5-1.5-2.9-2.3-4.2-.7-1.3-1.4-2.6-2-3.7-.6-1.2-1.2-2.2-1.7-3-1.5-2.5-2-4.6-1.6-6.3.4-1.7,2-3.1,4.8-4.2,1.2-.5,2.3-.8,3.2-.9.9-.1,1.8,0,2.5.4.8.4,1.5,1,2.3,1.9.7.9,1.5,2,2.3,3.5,2.2,4,4.2,7.6,6,10.8,1.8,3.1,3.5,5.7,4.9,7.8,1.5,2.1,2.8,3.6,3.9,4.5,1.1.9,2.2,1.2,3.1.9,1-.4,1.6-1.3,2-2.8.4-1.5.5-3.4.3-5.5-.2-2.2-.6-4.6-1.3-7.3-.7-2.7-1.6-5.4-2.6-8.1Z" />
  <path class="cls-4"
    d="M317,106.3c0-.3-.3-1-.5-2-.3-1-.6-2.1-1-3.4-.4-1.3-.8-2.6-1.4-4-.5-1.4-1.1-2.7-1.7-3.8-1-.7-2-1.3-3-1.8-1-.5-2.2-.6-3.6-.2-2.3.6-3.6,2.5-3.9,5.8-.3,3.3.4,8,2,14.3.7,2.8,1.5,5.2,2.4,7.5.8,2.2,1.7,4.1,2.7,5.6,1,1.5,2,2.6,3,3.3,1,.7,2.1.9,3.2.6,4.7-1.2,5.3-8.5,1.8-22ZM311.3,87.1c-1.3-2.8-2.8-5.3-4.5-7.6-1.7-2.3-3.4-4.2-5.3-5.6-1.9-1.5-3.8-2.5-5.9-3.1-2.1-.6-4.1-.6-6.2,0-1.2.3-2.2.7-3.1,1.3-.9.5-1.6,1.1-2.2,1.7-.6.6-1.1,1.1-1.5,1.6-.4.5-.6.8-.8,1.1l-1.6-1.2c.5-1.1,1.1-2.2,2-3.2.8-1.1,1.7-2,2.8-2.9,1.1-.9,2.2-1.7,3.5-2.3,1.2-.7,2.5-1.2,3.8-1.5,4.3-1.1,8.4-1.2,12.2-.1,3.8,1,7.2,3,10.4,5.9,3.1,2.9,5.9,6.6,8.3,11.3,2.4,4.6,4.4,9.9,5.9,15.9,1.3,4.8,1.9,9.2,1.9,13.2,0,3.9-.6,7.4-1.8,10.3-1.2,2.9-2.9,5.4-5.2,7.3-2.3,1.9-5,3.3-8.3,4.2-2.3.6-4.7.8-7.2.6-2.5-.2-5-.9-7.4-2.3-2.4-1.3-4.6-3.3-6.5-6-2-2.6-3.5-6.1-4.6-10.4-1-3.7-1.3-7.1-1-10.3.3-3.2,1-5.9,2.3-8.4,1.3-2.4,2.9-4.5,4.9-6.1,2.1-1.7,4.4-2.8,7-3.5,1-.3,1.9-.4,2.7-.5.8,0,1.6,0,2.3,0,.7,0,1.2.2,1.7.4.5.2,1,.3,1.4.5Z" />
  <path class="cls-4"
    d="M371.7,80.3c.9,5.5,1.2,10.9,1,16.1-.2,5.3-.9,10.3-2.1,15.1-1.1,4.8-2.7,9.2-4.7,13.4-2,4.1-4.2,7.8-6.8,10.9-2.6,3.1-5.4,5.7-8.6,7.7-3.1,2-6.4,3.3-9.9,3.9-2.6.4-4.7.3-6.3-.3-1.6-.6-2.5-1.7-2.8-3.2,0-.6,0-1.1,0-1.7,0-.6.2-1.1.5-1.6.2-.5.5-.9.9-1.2.4-.3.8-.5,1.3-.6.6,0,1.1.1,1.5.6.5.5,1,1.1,1.5,1.7.5.6,1.2,1.1,1.8,1.6.7.5,1.6.6,2.6.5,1.3-.2,2.7-.7,4.1-1.4,1.4-.7,2.8-1.6,4.1-2.7,1.3-1.1,2.7-2.4,3.9-3.9,1.3-1.5,2.5-3.1,3.7-4.9-1.3-2.9-2.8-6-4.5-9.4-1.7-3.4-3.4-6.8-5.2-10.3-1.8-3.4-3.6-6.7-5.5-9.9-1.8-3.2-3.6-5.9-5.2-8.4-1.6-2.4-3.1-4.3-4.5-5.7-1.4-1.4-2.5-2-3.4-1.9-.6,0-1,.3-1.3.5-.3.2-.6.5-1,.9l-1.1-1c.5-.6,1.1-1.2,1.6-1.9.6-.7,1.3-1.3,2.1-1.9.8-.6,1.8-1.1,3-1.6,1.2-.5,2.6-.9,4.2-1.1,1.8-.3,3.6-.2,5.3.4,1.7.6,3.4,1.9,5,3.9,1.2,1.5,2.5,3.3,3.9,5.5,1.4,2.1,2.8,4.6,4.3,7.2,1.5,2.7,3,5.6,4.6,8.7,1.6,3.1,3.2,6.4,4.9,9.9,1.2-4.2,2-8.5,2.4-13.1.4-4.6.3-9.1-.5-13.8-.3-1.6-.6-3-1-4.2-.4-1.1-.8-2.1-1.2-2.9-.4-.8-.8-1.4-1-2-.3-.6-.5-1.1-.6-1.5,0-.4,0-.8.4-1.2.3-.4.7-.7,1.2-1,.5-.3,1-.5,1.5-.6.5-.2,1-.3,1.3-.3.8-.1,1.4,0,1.9.2.5.3.9.7,1.2,1.3.3.6.6,1.3.7,2.2.2.9.3,1.8.5,2.9Z" />
  <path class="cls-4"
    d="M418.9,56.8c0-1-.4-1.7-1.1-2.2-.7-.5-1.5-.7-2.3-.7-1.7,0-3.3.2-5,.7-1.6.5-3.1,1.2-4.3,2.1-1.3.9-2.3,1.9-3.1,3.1-.8,1.2-1.2,2.5-1.2,3.9,0,1,.1,1.8.4,2.3.3.6.6,1,.9,1.3.3.3.7.5,1,.5.4,0,.6.1.8.1.8,0,1.4-.1,1.9-.4.5-.3.9-.5,1.3-.8.4-.3.8-.6,1.1-.8.3-.3.8-.4,1.2-.4s.7,0,1.1.3c.4.2.8.4,1.1.8.3.4.6.8.9,1.4.3.6.4,1.3.4,2.1,0,1.2-.2,2.3-.7,3.1-.5.9-1.1,1.6-1.8,2.2-.8.6-1.6,1-2.6,1.3s-1.9.4-2.9.4c-1.5,0-2.8-.3-3.9-.8-1.2-.5-2.2-1.2-3-2.1-.8-.9-1.4-1.9-1.9-3.1-.4-1.2-.6-2.4-.6-3.8,0-3.8,1-6.9,2.9-9.3,1.9-2.4,4.5-4.4,7.8-5.8,3.3-1.4,7.2-2.4,11.5-2.9,4.4-.5,9.1-.8,14-.8,5.6,0,10.7.6,15.3,1.8,4.6,1.1,8.5,3,11.7,5.5,3.3,2.6,5.8,5.9,7.5,10,1.8,4.1,2.6,9.1,2.6,15,0,5.9-1,11.2-2.8,15.8s-4.4,8.4-7.7,11.5c-3.2,3.1-7,5.5-11.4,7.1-4.3,1.6-9,2.4-14,2.4-3.3,0-6-.2-8-.5-2-.3-3.6-.9-4.7-1.6-1.1-.8-1.8-1.8-2.2-3.1-.3-1.3-.5-2.9-.5-4.9v-51ZM433.8,108.2c0,1.7.4,3,1.1,3.7.8.7,1.9,1.1,3.4,1.1,2.3,0,4.4-.5,6.3-1.5,1.9-1,3.6-2.7,5-5.1,1.4-2.4,2.5-5.7,3.3-9.8.8-4.1,1.2-9.2,1.2-15.3,0-4.1-.2-7.7-.7-10.7-.5-3-1.2-5.6-2-7.7-.8-2.1-1.7-3.8-2.8-5.1-1-1.3-2.1-2.4-3.2-3.1-1.1-.8-2.2-1.3-3.2-1.5-1-.3-2-.4-2.8-.4-2,0-3.4.4-4.3,1.3-.9.9-1.3,2.4-1.3,4.7v49.4Z" />
  <path class="cls-4"
    d="M498.7,97.5c0-.8,0-1.3-.5-1.8-.4-.5-1-.7-1.8-.8-1.1-.1-2.1,0-3.1.3-1,.4-1.9,1-2.8,1.8s-1.6,1.9-2.2,3.2c-.6,1.3-1,2.9-1.2,4.7-.2,1.8-.3,3.2-.2,4.4.1,1.2.4,2.1.7,2.9.3.7.8,1.3,1.3,1.6.5.3,1.1.6,1.8.6.8,0,1.6,0,2.3-.3.7-.3,1.4-.8,2-1.3.6-.6,1.1-1.2,1.5-2,.4-.8.7-1.5.8-2.3l1.4-11ZM494,76.9c-1-.1-2-.1-2.9,0-.9.1-1.7.3-2.4.6-.7.3-1.2.6-1.6,1-.4.4-.6.8-.7,1.2,0,.4.1.8.6,1.1.4.3.9.5,1.5.9.5.3,1,.8,1.4,1.3.4.5.6,1.3.4,2.2,0,.6-.3,1.2-.6,1.7-.3.5-.7.9-1.2,1.3-.5.3-1,.6-1.6.8-.6.2-1.2.2-1.9.1-1.7-.2-3-.9-3.9-2.2-.9-1.3-1.2-2.9-1-4.8.2-1.8.9-3.3,2-4.5,1.1-1.2,2.5-2.1,4.2-2.8,1.7-.7,3.5-1.1,5.5-1.2,2-.2,4-.1,6,.1,2.3.3,4.6.8,6.6,1.6,2.1.8,3.9,1.8,5.4,3.1,1.5,1.3,2.6,2.9,3.4,4.7.8,1.8,1,4,.7,6.4l-3.2,25.5c0,.3,0,.6,0,.9,0,.3,0,.6.1.9,0,.3.3.6.5.8.2.2.6.3,1,.4.5,0,1.1,0,1.6-.4.5-.4,1-.7,1.4-1.1l1,1.1c-.5.6-1.1,1.2-1.9,1.9-.7.7-1.6,1.3-2.6,1.8-1,.5-2.1,1-3.4,1.3-1.3.3-2.7.4-4.2.2-1.9-.2-3.5-1-4.9-2.3-1.3-1.3-2.1-3.2-2.3-5.6-1.1,1.2-2.3,2.1-3.4,2.9-1.1.8-2.3,1.3-3.5,1.7-1.2.4-2.3.7-3.4.8-1.1.1-2.2,0-3.4,0-1.4-.2-2.8-.6-4.1-1.2-1.3-.6-2.4-1.5-3.4-2.6-.9-1.1-1.6-2.5-2.1-4.1-.4-1.7-.5-3.6-.2-5.9.3-2.7,1.2-4.9,2.5-6.5,1.3-1.6,2.9-2.9,4.8-3.9,1.9-1,4-1.7,6.4-2.3,2.3-.6,4.8-1.2,7.2-1.8,1.8-.5,3.3-1.4,4.2-2.6,1-1.3,1.5-2.6,1.7-4.1.3-2.2-.2-4.1-1.3-5.6-1.1-1.5-2.8-2.4-5.1-2.7Z" />
  <path class="cls-4"
    d="M542.1,85l-6.8,33c-.3,1.6-.3,2.7.2,3.4.5.7,1.2,1.2,2.3,1.4.8.2,1.6,0,2.3-.2.7-.3,1.3-.7,1.9-1.2.7-.5,1.3-1.1,1.8-1.9l1.3.9c-.6.8-1.4,1.8-2.2,2.8-.8,1-1.9,1.9-3.1,2.6-1.2.8-2.6,1.3-4.3,1.7-1.7.3-3.6.3-6-.2-1.3-.3-2.5-.7-3.7-1.4-1.1-.6-2.1-1.5-2.8-2.5-.8-1-1.3-2.2-1.6-3.6-.3-1.4-.3-2.9,0-4.7l6.8-33-5-1,.7-3.2c.8.2,2,.2,3.6,0,1.6-.1,3.3-.5,5-1.2,1.8-.7,3.5-1.7,5.2-3.1,1.7-1.4,3.1-3.3,4.1-5.7l3.6.7-2.7,13.1,7.3,1.5c2.4.5,3.7.3,3.8-.5,0-.3,0-.5-.3-.7-.3-.2-.6-.4-.9-.6-.3-.3-.6-.5-.9-.9-.2-.4-.3-.9-.1-1.6.2-.8.6-1.4,1.2-1.8.6-.4,1.4-.5,2.2-.3.5.1,1,.3,1.3.6.4.3.6.7.8,1.1.2.4.3.9.4,1.4,0,.5,0,1,0,1.5-.4,1.9-1.3,3.4-2.6,4.3-1.3.9-3.3,1.1-5.7.6l-6.9-1.4Z" />
  <path class="cls-4"
    d="M573.5,113.4c.2-.7.1-1.3-.2-1.9-.4-.5-.9-.9-1.6-1.1-1-.3-2.1-.3-3.1-.1-1,.2-2.1.6-3,1.4-1,.7-1.8,1.6-2.6,2.9-.8,1.2-1.4,2.7-1.9,4.4-.5,1.7-.8,3.1-.9,4.3,0,1.2,0,2.1.3,2.9.2.8.6,1.4,1.1,1.8.5.4,1,.7,1.6.9.8.2,1.5.2,2.3,0,.8-.2,1.5-.5,2.2-1,.7-.5,1.3-1,1.8-1.7.5-.7.9-1.4,1.1-2.1l3.1-10.7ZM572,92.3c-1-.3-1.9-.4-2.9-.4-.9,0-1.7,0-2.4.2s-1.3.4-1.8.7c-.5.3-.8.7-.9,1.1-.1.4,0,.8.4,1.1.4.3.8.7,1.3,1.1.5.4.9.9,1.2,1.5.3.6.3,1.3,0,2.3-.2.6-.5,1.1-.9,1.6-.4.4-.9.8-1.4,1.1-.5.3-1.1.4-1.8.5-.6,0-1.2,0-1.9-.2-1.6-.5-2.8-1.4-3.5-2.8-.7-1.4-.8-3-.2-4.9.5-1.8,1.4-3.1,2.7-4.1,1.3-1,2.8-1.7,4.6-2.1,1.7-.4,3.6-.5,5.6-.4,2,.2,4,.5,5.9,1.1,2.3.7,4.4,1.5,6.3,2.6,1.9,1.1,3.5,2.4,4.8,4,1.3,1.5,2.1,3.3,2.6,5.2.5,1.9.4,4.1-.3,6.4l-7.1,24.7c0,.3-.1.5-.2.9,0,.3,0,.6,0,.9,0,.3.2.6.3.8.2.2.5.4,1,.6.5.1,1,0,1.6-.2.6-.3,1.1-.5,1.6-.8l.8,1.2c-.6.5-1.3,1-2.1,1.6-.8.6-1.8,1-2.8,1.4-1.1.4-2.2.6-3.5.7-1.3.1-2.7,0-4.1-.5-1.8-.5-3.3-1.6-4.4-3.1-1.1-1.5-1.6-3.5-1.3-5.9-1.3,1-2.6,1.8-3.8,2.3-1.2.6-2.5.9-3.7,1.2-1.2.2-2.4.3-3.5.2-1.1,0-2.2-.3-3.3-.6-1.4-.4-2.7-1-3.9-1.9-1.2-.8-2.2-1.8-2.9-3.1-.8-1.3-1.2-2.7-1.4-4.4-.2-1.7,0-3.6.7-5.8.8-2.6,1.9-4.7,3.4-6,1.5-1.4,3.3-2.4,5.4-3.1,2-.7,4.3-1.1,6.7-1.3,2.4-.2,4.9-.4,7.4-.7,1.9-.2,3.4-.8,4.6-1.9,1.2-1.1,1.9-2.3,2.3-3.7.6-2.2.5-4.1-.4-5.7-.9-1.7-2.4-2.8-4.6-3.5Z" />
  <path class="cls-4"
    d="M618.3,107.8l-11.8,31.5c-.6,1.5-.7,2.6-.3,3.4.3.8,1,1.4,2,1.8.8.3,1.5.3,2.3.1.8-.2,1.5-.5,2.1-.9.8-.4,1.5-.9,2.1-1.6l1.1,1.1c-.8.7-1.6,1.5-2.6,2.4-1,.9-2.2,1.6-3.5,2.1-1.3.6-2.8.9-4.5,1-1.7,0-3.7-.3-5.9-1.1-1.3-.5-2.4-1.1-3.4-1.9-1-.8-1.8-1.8-2.4-2.9-.6-1.1-.9-2.4-1-3.8,0-1.4.2-2.9.8-4.6l11.9-31.6-4.8-1.8,1.2-3.1c.8.3,2,.5,3.5.6,1.6.1,3.3,0,5.1-.4,1.9-.4,3.7-1.2,5.6-2.3,1.9-1.1,3.5-2.8,5-5l3.4,1.3-4.7,12.6,7,2.6c2.3.9,3.5.9,3.8.1.1-.3,0-.5-.2-.8s-.5-.4-.8-.7c-.3-.3-.5-.6-.7-1-.2-.4-.1-.9.1-1.6.3-.8.8-1.3,1.4-1.6.7-.3,1.4-.3,2.2,0,.5.2.9.5,1.2.8.3.4.5.8.6,1.2.1.4.2.9.1,1.4,0,.5-.1,1-.3,1.4-.7,1.8-1.8,3.1-3.3,3.8-1.5.7-3.4.6-5.8-.3l-6.6-2.5Z" />
  <path class="cls-4"
    d="M645.4,124.4c1.7-1,3.5-1.7,5.3-2.3.8-.3,1.6-.5,2.4-.6.9-.2,1.8-.3,2.7-.3.9,0,1.8,0,2.7.2.9.2,1.8.4,2.6.8,1.8.9,3.3,2,4.4,3.4,1.1,1.4,1.8,3.2,2,5.3.2,2.1,0,4.7-.9,7.7-.8,3-2.1,6.5-4,10.6-1.9,4-3.9,7.3-6,9.9-2.1,2.6-4.2,4.7-6.3,6.2-2.1,1.5-4.2,2.6-6.3,3.2-2.1.6-4,1-5.9,1-1.8,0-3.5-.1-5-.5-1.5-.4-2.8-.8-3.8-1.2l.4-1.9c1.4.3,2.7.2,4.1-.1,1.4-.4,2.8-1.3,4.4-2.9,1.5-1.6,3.2-3.9,5.1-6.9,1.8-3,4-7,6.3-12.1,1.6-3.5,2.8-6.3,3.4-8.5.7-2.2,1-4,1-5.3,0-1.3-.2-2.3-.7-3-.5-.7-1-1.1-1.7-1.4-.8-.4-1.6-.5-2.4-.4-.8.1-1.6.4-2.3.7-.7.3-1.4.7-1.9,1.1-.6.4-1,.7-1.4.8l-13,27.5c-.2.4-.4.8-.8,1.2-.3.5-.8.8-1.5,1.1-.6.3-1.5.3-2.4.3-1,0-2.2-.4-3.7-1.1-1.5-.7-2.5-1.4-3.2-2.2-.7-.7-1.1-1.4-1.3-2.1s-.3-1.3-.1-1.8c.1-.5.3-1,.4-1.3l25-53.1c.4-.8.5-1.6.4-2.3,0-.8-.6-1.3-1.4-1.8-.5-.2-.9-.4-1.4-.4-.4,0-.9,0-1.4.1l-.4-1.4c.9-.2,1.8-.4,2.8-.6,1-.2,2.1-.2,3.2-.1,1.1,0,2.2.2,3.4.4,1.2.3,2.3.6,3.5,1.2,1.8.8,3,1.7,3.8,2.7.8.9,1.2,1.9,1.4,2.8.1.9,0,1.8-.2,2.6-.3.8-.6,1.5-.8,2.1l-10.5,22.4Z" />
  <path class="cls-4"
    d="M667.6,152.1c2-3.4,4.3-6.1,6.8-8.1,2.5-2,5.1-3.3,7.8-4.1,2.7-.7,5.4-.9,8.1-.4,2.7.4,5.3,1.4,7.6,2.8,2.4,1.4,4.5,3.2,6.2,5.3,1.7,2.1,2.9,4.5,3.6,7.1.7,2.6.8,5.5.2,8.6-.5,3.1-1.8,6.4-3.8,9.8-2,3.4-4.3,6.1-6.9,8.2-2.6,2-5.2,3.5-7.9,4.3-2.7.8-5.5,1-8.2.6-2.7-.4-5.3-1.3-7.7-2.7-2.4-1.4-4.4-3.2-6.1-5.4-1.7-2.2-2.8-4.6-3.4-7.3-.6-2.7-.7-5.6-.1-8.8s1.8-6.5,3.9-9.9ZM691.9,166.1c1.3-2.1,2.4-4.1,3.4-6.2,1-2,1.8-3.9,2.3-5.7.5-1.8.6-3.3.4-4.7-.3-1.4-1-2.4-2.3-3.2-1.3-.8-2.6-.9-3.9-.4-1.3.5-2.7,1.4-4,2.7-1.3,1.3-2.7,2.9-4,4.8-1.3,1.9-2.6,3.9-3.8,6-1.2,2.1-2.4,4.2-3.5,6.3-1.1,2.1-1.8,4-2.4,5.8-.5,1.8-.7,3.4-.5,4.9s.9,2.5,2.2,3.3c1.3.8,2.6.9,4,.4,1.4-.5,2.8-1.5,4.1-2.9,1.4-1.4,2.8-3,4.1-5,1.4-1.9,2.7-4,3.9-6Z" />
  <path class="cls-4"
    d="M731.3,194.4c2.3-3.1,3.9-5.6,5-7.7,1.1-2.1,1.8-3.8,2-5.1.3-1.3.2-2.3-.1-3s-.8-1.3-1.4-1.7c-.7-.5-1.5-.8-2.3-.8-.8,0-1.6,0-2.4.3-.8.2-1.5.4-2.1.7-.6.3-1.1.5-1.5.6l-18.1,24.5c-.2.3-.6.7-1,1-.4.4-1,.6-1.7.8-.7.1-1.5,0-2.4-.2-1-.3-2.1-.9-3.4-1.8-1.3-1-2.2-1.9-2.7-2.7-.5-.8-.8-1.6-.9-2.3s0-1.3.2-1.8c.2-.5.4-.9.6-1.1l20.9-28.3c.5-.7.8-1.4.9-2.2,0-.8-.3-1.5-1.1-2-.4-.3-.8-.5-1.2-.6-.4,0-.9,0-1.4,0v-1.5c.8,0,1.8,0,2.8,0,1,0,2.1.2,3.1.5,1.1.3,2.1.6,3.2,1.1,1.1.5,2.1,1.1,3.2,1.8,1.6,1.2,2.6,2.4,3.1,3.5.5,1.2.7,2.3.6,3.3s-.4,2-1,2.9c-.5.8-.9,1.5-1.3,2.1,1.8-.6,3.7-1,5.6-1.2.8,0,1.6-.1,2.5-.1s1.8,0,2.7.2c.9.1,1.8.4,2.6.7.9.3,1.7.8,2.4,1.3,1.7,1.2,2.9,2.6,3.7,4.2.8,1.6,1.1,3.4.9,5.6-.2,2.1-1,4.6-2.4,7.4-1.3,2.8-3.4,6-6,9.6-2.6,3.5-5.2,6.4-7.8,8.5-2.6,2.1-5,3.7-7.4,4.8-2.4,1.1-4.6,1.7-6.8,1.9-2.2.2-4.1.2-5.9-.2-1.8-.3-3.4-.8-4.8-1.4-1.4-.6-2.6-1.3-3.5-1.9l.7-1.8c.8.4,1.7.6,2.6.7.9,0,1.9,0,2.9-.4,1-.3,2.2-.9,3.4-1.7,1.2-.8,2.5-1.9,4-3.3,1.5-1.4,3.1-3.2,4.9-5.3,1.8-2.1,3.8-4.7,6-7.7Z" />
  <g class="cls-1">
    <g class="cls-7">
      <g class="cls-10">
        <g class="cls-9">
          <g class="cls-8">
            <path class="cls-3"
              d="M129.2,122.3c1.6-1,3.8-.6,4.8,1.1,1,1.6.6,3.8-1.1,4.8-.8.5-1.7.7-2.6.5-1.3,1.5-3.7,3.5-8,6.3-8.8,5.6-21.8,12.1-22.9,10.5-1-1.6,10.3-10.8,19.1-16.4,4.2-2.7,7.1-4.1,9-4.6.2-.8.7-1.6,1.5-2.1Z" />
          </g>
        </g>
      </g>
    </g>
  </g>
  <g class="cls-14">
    <g class="cls-13">
      <g class="cls-11">
        <g class="cls-12">
          <g class="cls-15">
            <path class="cls-6"
              d="M125.5,127.1s6.3-21.5-5-36.3c-11.4-14.8-22.3,1.3-23.2,6.4,0,0-25.5,20.3-9.7,30.3s38-.4,38-.4Z" />
          </g>
        </g>
      </g>
    </g>
  </g>
  <g class="cls-99">
    <g class="cls-104">
      <g class="cls-98">
        <g class="cls-97">
          <g class="cls-96">
            <path class="cls-3"
              d="M80.9,116.6c2.1-8.6,11.8-17.3,14.6-19.6,1-3.5,4.9-9.9,10.8-12.6,5.8-2.7,11.1-.9,15.9,5.3,6,7.8,7.1,17.5,6.9,24.3-.2,7.3-1.7,12.7-1.8,12.9l-.3,1-1.3.6c-.2.1-6,2.8-13.8,4.1-7.2,1.3-17.5,1.7-25.9-3.7-2.1-1.3-3.6-2.9-4.5-4.7-1.1-2.2-1.3-4.7-.6-7.6ZM118.7,92c-3.9-5.1-8.1-6.9-11.9-5.1-4,1.9-7.3,7.4-7.7,9.8v.7c-.1,0-.9.6-.9.6-.1,0-11.5,9.3-13.6,17.8-1.1,4.3.4,7.8,4.4,10.3,6.2,3.9,14.2,5.1,23.7,3.4,5-.9,9.2-2.4,11.2-3.2,1.1-4.5,4.3-22-5.2-34.4Z" />
          </g>
        </g>
      </g>
    </g>
  </g>
  <g class="cls-100">
    <g class="cls-102">
      <g class="cls-101">
        <g class="cls-105">
          <g class="cls-103">
            <path class="cls-6" d="M97.2,97.2c20.4,6.5,28.2,29.9,28.2,29.9" />
          </g>
        </g>
      </g>
    </g>
  </g>
  <g class="cls-18">
    <g class="cls-19">
      <g class="cls-22">
        <g class="cls-21">
          <g class="cls-20">
            <path class="cls-3"
              d="M96.7,97.8c20,6.4,27.9,29.5,28,29.7l1.5-.8c0,0-2-6-6.5-12.6-4.1-6.1-11.3-14.2-22-17.6l-1.1,1.2Z" />
          </g>
        </g>
      </g>
    </g>
  </g>
  <g class="cls-23">
    <g class="cls-47">
      <g class="cls-45">
        <g class="cls-46">
          <g class="cls-48">
            <path class="cls-6" d="M119.3,113.9s-21.9-5.1-36.8,3.7" />
          </g>
        </g>
      </g>
    </g>
  </g>
  <g class="cls-56">
    <g class="cls-58">
      <g class="cls-55">
        <g class="cls-54">
          <g class="cls-49">
            <path class="cls-3"
              d="M82.2,117.1l.5.9c14.3-8.5,35.9-3.6,36.1-3.5v-.7c-.8-.2-21.4-5.7-36.6,3.3Z" />
          </g>
        </g>
      </g>
    </g>
  </g>
  <g class="cls-50">
    <g class="cls-51">
      <g class="cls-52">
        <g class="cls-57">
          <g class="cls-53">
            <path class="cls-3"
              d="M88.9,106.1c4.4-2,11.7-1.7,21.7.8l4.2,1.1-3-2.3c0,0-6.5-4.9-5-9.2.3-1,1-1.8,2.2-2.6,6.8-4.7,14.4,3.7,14.5,3.7l1.4-1c-.3-.4-8.3-9.2-16.5-3.5-1.5,1.1-2.6,2.3-3,3.6-1.1,3.1,1.1,6.2,3,8.1-8.7-1.9-15.1-1.8-19.5.1l.2,1.1Z" />
          </g>
        </g>
      </g>
    </g>
  </g>
  <g class="cls-26">
    <g class="cls-28">
      <g class="cls-27">
        <g class="cls-30">
          <g class="cls-24">
            <path class="cls-6"
              d="M123.6,127.4s-32.5,23.9-43.3,18.9c-10.8-5-3.9-21.1,4.4-25.2,18-9.1,38.9,6.4,38.9,6.4Z" />
          </g>
        </g>
      </g>
    </g>
  </g>
  <g class="cls-25">
    <g class="cls-31">
      <g class="cls-29">
        <g class="cls-32">
          <g class="cls-33">
            <path class="cls-3"
              d="M74.2,131.5c2-5.1,5.9-9.6,10.2-11.8,19-9.6,39.9,5.6,40.8,6.3l1.2.9-1.9,1.4c-1.4,1-33.9,24.8-45.6,19.4-2.4-1.1-4-2.7-4.9-4.6-1.7-3.5-1.3-7.9.2-11.6ZM85.1,122.2c-2.8,1.4-5.8,5-7.3,8.9-.9,2.4-3.4,10.3,3.9,13.7,4.9,2.3,15.6-2.7,23.7-7.2,6.5-3.7,12.4-7.6,15.3-9.7-4.7-3-21.6-12.8-35.7-5.6Z" />
          </g>
        </g>
      </g>
    </g>
  </g>
  <g class="cls-70">
    <g class="cls-71">
      <g class="cls-72">
        <g class="cls-68">
          <g class="cls-69">
            <path class="cls-6" d="M120.6,128.3s-31.6,7.1-29.8,2.1c1.9-5,11.4-8.5,29.8-2.1Z" />
          </g>
        </g>
      </g>
    </g>
  </g>
  <g class="cls-73">
    <g class="cls-74">
      <g class="cls-75">
        <g class="cls-76">
          <g class="cls-84">
            <path class="cls-3"
              d="M90.1,130.5c.6-1.7,2-3.2,4.1-4.3,5.7-3.1,15.3-2.6,27,1.6l1.9.7-2.6.6c-2.7.6-26.7,5.9-30,3-.1-.1-.2-.3-.3-.4-.2-.3-.2-.7,0-1.1ZM94.6,127.1c-1.5.8-2.5,1.9-2.9,3.2,0,.2-.1.4.2.6,2.2,1.9,17.9-.9,26.3-2.6-14.5-4.7-21.3-2.4-23.6-1.2Z" />
          </g>
        </g>
      </g>
    </g>
  </g>
  <g class="cls-16">
    <g class="cls-78">
      <g class="cls-80">
        <g class="cls-86">
          <g class="cls-79">
            <path class="cls-6" d="M90.9,130.4s-9.3,2.8-16.2,7.1" />
          </g>
        </g>
      </g>
    </g>
  </g>
  <g class="cls-85">
    <g class="cls-87">
      <g class="cls-82">
        <g class="cls-81">
          <g class="cls-17">
            <path class="cls-3"
              d="M74.4,137.1l.5.9c6.7-4.2,15.7-6.9,15.8-7v-1.2c-.3.1-9.4,2.9-16.4,7.3Z" />
          </g>
        </g>
      </g>
    </g>
  </g>
  <g class="cls-88">
    <g class="cls-92">
      <g class="cls-90">
        <g class="cls-83">
          <g class="cls-94">
            <path class="cls-6" d="M95.3,126.1s-9.4-2.6-15.5.3" />
          </g>
        </g>
      </g>
    </g>
  </g>
  <g class="cls-89">
    <g class="cls-95">
      <g class="cls-93">
        <g class="cls-91">
          <g class="cls-77">
            <path class="cls-3"
              d="M80,126.9c5.7-2.7,14.8-.2,14.9-.2l1-1.3c-.4-.1-9.7-2.6-16.1.4l.2,1.1Z" />
          </g>
        </g>
      </g>
    </g>
  </g>
  <g class="cls-40">
    <g class="cls-37">
      <g class="cls-42">
        <g class="cls-38">
          <g class="cls-34">
            <path class="cls-6" d="M100.1,132s-13.7,10.2-16.1,14.9" />
          </g>
        </g>
      </g>
    </g>
  </g>
  <g class="cls-39">
    <g class="cls-36">
      <g class="cls-41">
        <g class="cls-35">
          <g class="cls-44">
            <path class="cls-3"
              d="M83.3,146.9h1.4c2.3-4.5,15.6-14.5,15.8-14.6l-.7-.8c-.6.4-13.9,10.4-16.5,15.3Z" />
          </g>
        </g>
      </g>
    </g>
  </g>
  <g class="cls-65">
    <g class="cls-63">
      <g class="cls-66">
        <g class="cls-61">
          <g class="cls-62">
            <path class="cls-6"
              d="M125.4,127s4.6-24.1-8.9-42.3c-13.5-18.2-23.6-.7-24,5.1,0,0-25.1,21-7.4,34,17.7,13,40.3,3.3,40.3,3.3Z" />
          </g>
        </g>
      </g>
    </g>
  </g>
  <g class="cls-59">
    <g class="cls-64">
      <g class="cls-67">
        <g class="cls-43">
          <g class="cls-60">
            <path class="cls-3"
              d="M78.4,119.3c1.1,2.2,2.9,4.1,5.2,5.8,9.5,7,20.4,7.5,27.9,6.8,8.1-.8,14-3.3,14.3-3.4l1.3-.6.2-1.2c0-.3,1.2-6.3.7-14.7-.5-7.7-2.6-19-9.7-28.6-5.7-7.6-11.5-10.2-17.4-7.6-5.9,2.5-9.5,9.6-10.2,13.5-2.7,2.5-12.2,11.5-13.6,21.2-.5,3.2,0,6.2,1.4,8.8ZM123.7,126c-2.1.7-6.3,2-11.6,2.5-9.9,1-18.5-1.1-25.5-6.3-4.5-3.3-6.4-7.4-5.7-12.3,1.4-9.6,12.6-19.1,12.7-19.2l.8-.6v-.8c.3-2.7,3.2-8.8,7.3-10.5,3.9-1.7,8.5.8,13.1,7,11.3,15.3,9.6,35.1,8.9,40.1Z" />
          </g>
        </g>
      </g>
    </g>
  </g>
  <g class="cls-137">
    <g class="cls-143">
      <g class="cls-138">
        <g class="cls-139">
          <g class="cls-142">
            <path class="cls-6" d="M92.5,89.8c22.3,9.5,32.9,37.2,32.9,37.2" />
          </g>
        </g>
      </g>
    </g>
  </g>
  <g class="cls-136">
    <g class="cls-145">
      <g class="cls-140">
        <g class="cls-144">
          <g class="cls-141">
            <path class="cls-3"
              d="M92,90.4c21.8,9.3,32.5,36.7,32.6,37l1.6-.8c0,0-2.7-7.1-8.1-15.2-5-7.5-13.4-17.4-25-22.4l-1,1.3Z" />
          </g>
        </g>
      </g>
    </g>
  </g>
  <g class="cls-129">
    <g class="cls-128">
      <g class="cls-127">
        <g class="cls-126">
          <g class="cls-131">
            <path class="cls-6" d="M117.6,111.2s-23.8-8-38.8.7" />
          </g>
        </g>
      </g>
    </g>
  </g>
  <g class="cls-130">
    <g class="cls-132">
      <g class="cls-133">
        <g class="cls-134">
          <g class="cls-135">
            <path class="cls-3"
              d="M78.5,111.3l.6,1.1c14.4-8.3,37.8-.6,38-.5l.3-1c-1-.3-23.7-8.4-38.9.4Z" />
          </g>
        </g>
      </g>
    </g>
  </g>
  <g class="cls-160">
    <g class="cls-161">
      <g class="cls-157">
        <g class="cls-162">
          <g class="cls-163">
            <path class="cls-3"
              d="M84.5,99.2c4.5-1.9,12.3-.8,23.1,3.1l4.6,1.6-3.4-2.9c0,0-7.3-6.2-6.2-11.1.3-1.1.9-2,2-2.8,6.8-4.8,15.6,5.6,15.7,5.7l1.4-1c-.4-.5-9.8-11.4-17.9-5.7-1.5,1.1-2.5,2.4-2.8,3.9-.8,3.4,1.8,7.2,3.9,9.6-9.4-3-16.3-3.6-20.7-1.7l.3,1.3Z" />
          </g>
        </g>
      </g>
    </g>
  </g>
  <g class="cls-159">
    <g class="cls-158">
      <g class="cls-164">
        <g class="cls-165">
          <g class="cls-156">
            <path class="cls-6"
              d="M123.4,127.1s-32.2,24.4-44.2,17.5c-12-6.8-6.2-24.6,2.3-28.6,18.2-8.7,41.9,11.1,41.9,11.1Z" />
          </g>
        </g>
      </g>
    </g>
  </g>
  <g class="cls-151">
    <g class="cls-155">
      <g class="cls-149">
        <g class="cls-152">
          <g class="cls-153">
            <path class="cls-3"
              d="M72.3,140.4c1.2,2.2,3,4.2,5.6,5.7,12.9,7.4,45.2-16.8,46.6-17.9l1.9-1.4-1.3-1.1c-1-.8-24.8-20.4-44-11.2-4.3,2.1-8,6.9-9.6,12.6-1.2,4.2-1.3,9.1.9,13.3ZM120.5,127.4c-2.9,2.1-8.8,6.1-15.3,9.7-8.2,4.5-19,9.2-24.5,6-8.1-4.6-6.2-13.5-5.5-16.1,1.3-4.3,4-8.2,6.9-9.5,14.3-6.8,33.2,6,38.4,10Z" />
          </g>
        </g>
      </g>
    </g>
  </g>
  <g class="cls-148">
    <g class="cls-146">
      <g class="cls-150">
        <g class="cls-147">
          <g class="cls-154">
            <path class="cls-6" d="M120.4,128s-32.9,5.1-31.4-.5c1.5-5.6,11.2-8.7,31.4.5Z" />
          </g>
        </g>
      </g>
    </g>
  </g>
  <g class="cls-119">
    <g class="cls-114">
      <g class="cls-112">
        <g class="cls-116">
          <g class="cls-106">
            <path class="cls-3"
              d="M88.3,128.8c0,.2.2.3.4.5,3.8,3.6,28.8-.1,31.6-.6l2.7-.4-2.1-.9c-12.9-5.9-23.1-7.5-28.8-4.4-2,1.1-3.4,2.7-3.9,4.6-.1.5,0,.9.1,1.3ZM117.7,127.7c-8.8,1.2-25.1,2.9-27.7.5-.3-.3-.3-.6-.2-.7.4-1.4,1.3-2.6,2.8-3.3,2.3-1.2,9.3-3.2,25.1,3.6Z" />
          </g>
        </g>
      </g>
    </g>
  </g>
  <g class="cls-115">
    <g class="cls-111">
      <g class="cls-117">
        <g class="cls-113">
          <g class="cls-118">
            <g>
              <path class="cls-6" d="M89,127.4s-9.6,2.3-16.5,6.6" />
              <path class="cls-3"
                d="M72.2,133.5l.7,1.1c6.7-4.2,16-6.5,16.1-6.5v-1.4c-.4,0-9.8,2.4-16.8,6.8Z" />
            </g>
          </g>
        </g>
      </g>
    </g>
  </g>
  <g class="cls-125">
    <g class="cls-120">
      <g class="cls-121">
        <g class="cls-107">
          <g class="cls-109">
            <g>
              <path class="cls-6" d="M93.3,122.9s-10.2-3.9-16.4-1.2" />
              <path class="cls-3"
                d="M77.1,122.4c5.8-2.6,15.7,1.2,15.8,1.2l1-1.3c-.4-.2-10.6-4-17.1-1.1l.4,1.2Z" />
            </g>
          </g>
        </g>
      </g>
    </g>
  </g>
  <g class="cls-123">
    <g class="cls-122">
      <g class="cls-108">
        <g class="cls-110">
          <g class="cls-124">
            <g>
              <path class="cls-6" d="M98.9,130.2s-13.5,10.4-15.7,15.6" />
              <path class="cls-3"
                d="M82.5,145.8h1.5c2-4.8,15.2-15,15.3-15.1l-.9-1c-.6.4-13.8,10.6-16,16Z" />
            </g>
          </g>
        </g>
      </g>
    </g>
  </g>
</svg>