<?xml version="1.0" encoding="UTF-8"?>
<svg id="Layer_1" xmlns="http://www.w3.org/2000/svg" xmlns:xlink="http://www.w3.org/1999/xlink" viewBox="0 0 579.8 294.4">
  <defs>
    <style>
      .cls-1 {
        fill: none;
      }

      .cls-2 {
        clip-path: url(#clippath-1);
      }

      .cls-3 {
        clip-path: url(#clippath-3);
      }

      .cls-4 {
        clip-path: url(#clippath-4);
      }

      .cls-5 {
        clip-path: url(#clippath-2);
      }

      .cls-6 {
        fill: #8ca193;
      }

      .cls-7 {
        clip-path: url(#clippath);
      }

      .cls-8 {
        fill: #efd6ca;
      }
    </style>
    <clipPath id="clippath">
      <rect class="cls-1" width="579.8" height="294.4"/>
    </clipPath>
    <clipPath id="clippath-1">
      <rect class="cls-1" x="0" y="0" width="579.8" height="960.5"/>
    </clipPath>
    <clipPath id="clippath-2">
      <path class="cls-1" d="M193.4,16.7C223,6.6,256.9,0,290.1,0s65.1,5.7,94.5,15.8c.6.3,1.2.3,1.9.6,110.5,40.4,191.8,147.2,193.4,277.5v667.1H0V294.4C1.6,163,81.7,56.2,193.4,16.7h0Z"/>
    </clipPath>
    <clipPath id="clippath-3">
      <rect class="cls-1" x="28" y="36.3" width="523.8" height="902.3"/>
    </clipPath>
    <clipPath id="clippath-4">
      <path class="cls-1" d="M202.7,51.4c26.8-9.1,57.4-15.1,87.3-15.1s58.8,5.1,85.4,14.3c.6.3,1.1.3,1.7.6,99.8,36.5,173.3,133,174.7,251.4v636H28V303c1.4-119.5,73.8-216,174.7-251.6Z"/>
    </clipPath>
  </defs>
  <g class="cls-7">
    <g id="Layer_1-2" data-name="Layer_1">
      <g id="Layer_1-2">
        <g class="cls-2">
          <g class="cls-5">
            <path class="cls-8" d="M0,0h579.8v960.3H0V0Z"/>
          </g>
        </g>
        <g class="cls-3">
          <g class="cls-4">
            <path class="cls-6" d="M28,36.3h523.8v902.3H28V36.3Z"/>
          </g>
        </g>
      </g>
    </g>
  </g>
</svg>