<?xml version="1.0" encoding="UTF-8"?>
<svg id="Layer_1" xmlns="http://www.w3.org/2000/svg" xmlns:xlink="http://www.w3.org/1999/xlink"
  viewBox="0 0 503.34 708.8" preserveAspectRatio="none">
  <defs>
    <style>
      .cls-1 {
      fill: none;
      }

      .cls-2 {
      clip-path: url(#clippath-1);
      }

      .cls-3 {
      clip-path: url(#clippath-3);
      }

      .cls-4 {
      clip-path: url(#clippath-4);
      }

      .cls-5 {
      clip-path: url(#clippath-2);
      }

      .cls-6 {
      fill: #8ca193;
      }

      .cls-7 {
      clip-path: url(#clippath);
      }

      .cls-8 {
      fill: #efd6ca;
      }
    </style>
    <clipPath id="clippath">
      <rect class="cls-1" width="503.34" height="708.8" />
    </clipPath>
    <clipPath id="clippath-1">
      <rect class="cls-1" y="-225.4" width="503" height="957.3" />
    </clipPath>
    <clipPath id="clippath-2">
      <path class="cls-1"
        d="M167.8-212.9c25.7-7.5,55.1-12.5,83.8-12.5s56.5,4.2,82,11.8c.5.2,1.1.2,1.6.5C431-182.9,501.6-103.1,503-.5v732.4H0V0c1.4-103.6,70.8-183.4,167.8-212.9Z" />
    </clipPath>
    <clipPath id="clippath-3">
      <rect class="cls-1" x="24.3" y="-189.3" width="454.4" height="898.5" />
    </clipPath>
    <clipPath id="clippath-4">
      <path class="cls-1"
        d="M175.8-178c23.2-6.8,49.8-11.3,75.8-11.3s51,3.8,74.1,10.7c.5.2,1,.2,1.5.4,86.6,27.3,150.3,99.4,151.5,192.8v694.8H24.3V15.2c1.2-94.4,64-166.5,151.5-193.1v-.1Z" />
    </clipPath>
  </defs>
  <g class="cls-7">
    <g id="Layer_1-2" data-name="Layer_1">
      <g class="cls-2">
        <g class="cls-5">
          <path class="cls-6" d="M0-225.4h503v956.8H0V-225.4Z" />
        </g>
      </g>
      <g class="cls-3">
        <g class="cls-4">
          <path class="cls-8" d="M24.3-189.3h454.4v898.1H24.3V-189.3Z" />
        </g>
      </g>
    </g>
  </g>
</svg>